<svg version="1.0" xmlns="http://www.w3.org/2000/svg"
  width="40" height="40" viewBox="0 0 512.000000 512.000000"
  preserveAspectRatio="xMidYMid meet">

  <g transform="translate(0.000000,512.000000) scale(0.100000,-0.100000)"
    fill="#DDE7F1" stroke="none">
    <path d="M723 5105 c-132 -41 -217 -136 -242 -270 -8 -40 -11 -386 -11 -1082
                l0 -1023 85 0 85 0 0 1023 c0 577 4 1039 10 1061 12 54 38 87 90 114 l44 22
                1992 0 c1384 0 2001 -3 2021 -11 38 -14 83 -57 99 -96 12 -27 14 -317 14
                -1775 l0 -1743 -23 -39 c-28 -50 -64 -76 -118 -87 -24 -4 -443 -8 -931 -9
                l-888 0 0 -85 0 -86 928 3 927 3 56 23 c107 43 185 135 209 244 8 39 10 533 8
                1813 l-3 1760 -26 55 c-46 94 -123 160 -220 186 -77 20 -4041 20 -4106 -1z" />
    <path d="M817 4774 c-4 -4 -7 -43 -7 -86 l0 -78 90 0 91 0 -3 83 -3 82 -80 3
                c-45 1 -84 0 -88 -4z" />
    <path d="M1160 4695 l0 -85 85 0 85 0 0 85 0 85 -85 0 -85 0 0 -85z" />
    <path d="M1500 4695 l0 -85 85 0 85 0 0 85 0 85 -85 0 -85 0 0 -85z" />
    <path d="M817 4433 c-4 -3 -7 -42 -7 -85 l0 -78 1965 0 1965 0 0 85 0 85
                -1958 0 c-1077 0 -1962 -3 -1965 -7z" />
    <path d="M845 3986 c-13 -13 -26 -39 -30 -57 -3 -19 -5 -226 -3 -461 l3 -426
                24 -26 24 -26 546 0 c413 1 550 4 562 13 37 28 39 48 39 417 l0 362 -29 29
                -29 29 -209 0 -209 0 -69 71 c-39 39 -82 77 -97 85 -21 11 -78 14 -263 14
                -235 0 -236 0 -260 -24z m536 -231 l86 -85 187 0 186 0 0 -255 0 -255 -425 0
                -425 0 0 340 0 340 152 0 152 0 87 -85z" />
    <path d="M2209 3981 l-29 -29 0 -447 c0 -470 2 -492 45 -509 9 -3 259 -6 554
                -6 529 0 539 0 565 21 l26 20 0 374 c0 205 -3 381 -6 390 -15 38 -55 45 -265
                45 l-203 0 -87 85 -86 85 -242 0 -243 0 -29 -29z m532 -226 l88 -85 186 0 185
                0 0 -255 0 -255 -425 0 -425 0 0 340 0 340 151 0 152 0 88 -85z" />
    <path d="M3575 3986 c-14 -14 -26 -41 -30 -67 -3 -24 -5 -232 -3 -462 l3 -419
                28 -24 28 -24 542 0 c410 1 546 4 558 13 37 28 39 48 39 417 l0 362 -29 29
                -29 29 -208 0 -207 0 -88 85 -88 85 -246 0 c-245 0 -246 0 -270 -24z m536
                -231 l86 -85 187 0 186 0 0 -255 0 -255 -425 0 -425 0 0 340 0 340 152 0 152
                0 87 -85z" />
    <path d="M1103 2706 c-27 -24 -28 -27 -33 -156 l-5 -132 -78 -30 -77 -31 -84
                81 c-92 90 -122 107 -163 91 -33 -12 -387 -361 -409 -403 -24 -45 -10 -74 83
                -168 l86 -86 -32 -80 -33 -80 -128 -4 c-120 -3 -130 -5 -154 -27 l-26 -24 0
                -292 0 -292 26 -24 c24 -22 34 -24 154 -27 l129 -4 32 -80 32 -79 -92 -93
                c-95 -97 -103 -114 -77 -164 22 -42 390 -402 412 -403 47 -3 64 8 149 91 l90
                89 65 -28 c36 -16 73 -31 83 -34 15 -6 17 -21 17 -132 0 -126 0 -127 29 -156
                l29 -29 276 0 c287 0 314 3 335 44 6 11 12 76 13 144 l3 123 82 33 82 33 78
                -80 c82 -83 119 -107 158 -100 13 3 110 92 224 207 248 250 242 229 110 362
                l-90 90 33 82 33 82 113 0 c135 0 174 13 191 60 15 45 15 525 0 570 -17 47
                -56 60 -191 60 l-113 0 -33 82 -33 82 90 90 c132 132 138 113 -106 359 -109
                109 -208 203 -221 208 -37 14 -80 -11 -166 -99 -78 -80 -80 -81 -107 -67 -15
                8 -52 24 -83 36 l-56 20 0 130 c0 128 0 130 -26 154 l-27 25 -283 0 -283 0
                -28 -24z m479 -265 c4 -138 10 -150 92 -177 28 -9 95 -36 149 -61 73 -34 104
                -43 125 -38 15 3 63 42 107 86 l80 79 120 -120 119 -119 -82 -85 c-96 -101
                -99 -112 -48 -214 18 -37 43 -97 55 -134 37 -111 38 -112 183 -118 l123 -5 0
                -170 0 -170 -122 -3 c-117 -2 -123 -4 -142 -28 -11 -14 -30 -55 -42 -92 -12
                -37 -37 -97 -55 -134 -51 -102 -48 -113 48 -214 l82 -85 -119 -119 -120 -120
                -80 79 c-44 44 -92 83 -107 86 -21 5 -52 -4 -125 -38 -54 -25 -121 -52 -149
                -61 -82 -27 -88 -39 -92 -177 l-4 -119 -169 0 -169 0 0 114 c0 135 -10 155
                -93 181 -28 9 -95 37 -149 62 -74 35 -103 44 -124 39 -15 -4 -64 -43 -109 -86
                l-81 -79 -119 119 -119 119 82 84 c98 101 102 118 48 225 -18 37 -43 97 -55
                133 -35 106 -40 109 -181 109 l-120 0 0 175 0 175 118 0 c141 0 148 4 186 116
                13 38 37 97 55 131 50 101 46 120 -51 220 l-82 84 119 119 119 119 81 -79 c45
                -43 93 -82 108 -85 20 -5 51 4 124 38 54 25 122 53 150 62 83 26 93 46 93 181
                l0 114 169 0 169 0 4 -119z" />
    <path d="M1268 1945 c-195 -49 -363 -207 -424 -400 -30 -95 -34 -235 -10 -327
                46 -169 163 -313 316 -386 238 -114 503 -68 690 120 100 102 170 270 170 413
                0 247 -178 492 -409 566 -86 28 -252 35 -333 14z m247 -169 c81 -21 147 -60
                203 -120 155 -164 157 -414 6 -577 -210 -224 -565 -168 -698 111 -29 61 -31
                73 -31 175 0 103 2 114 31 175 56 117 134 186 253 227 76 26 162 29 236 9z" />
    <path d="M2440 2560 l0 -90 112 0 113 0 82 -82 83 -83 185 -3 185 -4 0 -254 0
                -254 -125 0 -125 0 0 -85 0 -85 175 0 c183 0 224 8 239 45 3 9 6 184 6 389 l0
                373 -23 21 c-22 21 -31 22 -233 22 l-209 0 -80 80 c-53 53 -92 84 -115 90 -19
                6 -88 10 -152 10 l-118 0 0 -90z" />
    <path d="M3614 2643 c-12 -2 -32 -15 -45 -29 l-24 -26 -3 -429 c-2 -284 1
                -442 8 -469 20 -73 1 -71 606 -68 l536 3 24 28 24 28 0 360 c0 378 -3 407 -45
                423 -9 3 -109 6 -222 6 l-206 0 -89 88 -89 87 -227 1 c-125 1 -237 0 -248 -3z
                m481 -244 c39 -39 84 -77 102 -85 23 -10 79 -14 203 -14 l170 0 0 -255 0 -255
                -425 0 -425 0 0 340 0 340 153 0 153 0 69 -71z" />
  </g>
</svg>