<svg version="1.0" xmlns="http://www.w3.org/2000/svg"
  width="40" height="40" viewBox="0 0 512.000000 512.000000"
  preserveAspectRatio="xMidYMid meet">

  <g transform="translate(0.000000,512.000000) scale(0.100000,-0.100000)"
    fill="#DDE7F1" stroke="none">
    <path d="M1528 4776 c-51 -14 -63 -22 -121 -75 -68 -64 -77 -108 -77 -369 l0
                  -228 -70 -12 c-38 -6 -113 -26 -167 -43 -673 -215 -1120 -852 -1090 -1554 28
                  -654 464 -1224 1090 -1424 54 -17 129 -37 167 -43 l70 -12 0 -228 c0 -205 2
                  -233 21 -282 23 -63 96 -136 157 -158 30 -11 354 -13 1722 -13 l1685 0 47 23
                  c26 13 65 44 87 68 61 69 71 112 71 295 0 138 -2 160 -19 180 -26 32 -86 32
                  -112 0 -17 -20 -19 -42 -19 -175 0 -134 -2 -155 -20 -184 -41 -66 75 -62
                  -1725 -62 -1800 0 -1684 -4 -1725 62 -18 30 -20 50 -20 246 l0 212 101 0 c118
                  0 268 20 392 53 l87 24 0 -52 c0 -140 133 -258 272 -242 177 21 277 211 193
                  365 -16 29 -46 65 -66 81 l-38 27 75 54 c41 30 121 100 177 157 l102 103 1098
                  0 1097 0 0 -195 c0 -195 0 -196 25 -220 31 -32 69 -32 100 0 l25 24 0 1689 c0
                  1884 6 1739 -71 1826 -22 24 -61 55 -87 68 l-47 23 -1670 2 c-1324 1 -1680 -1
                  -1717 -11z m3367 -150 c19 -8 44 -30 55 -48 19 -32 20 -49 20 -530 l0 -498
                  -534 0 -535 0 -15 -22 c-23 -32 -20 -81 5 -104 20 -18 46 -19 550 -22 l529 -3
                  0 -114 0 -115 -985 0 -985 0 -29 63 c-16 34 -43 86 -60 115 l-31 52 353 0
                  c365 0 408 4 427 40 16 30 12 68 -10 90 -19 19 -33 20 -449 20 l-429 0 -52 58
                  c-68 74 -181 175 -248 220 l-52 35 38 28 c21 15 51 52 67 81 105 192 -76 416
                  -286 354 -105 -30 -179 -127 -179 -232 l0 -52 -87 24 c-121 33 -272 54 -392
                  54 l-101 0 0 213 c0 195 2 215 20 245 40 65 -76 61 1723 62 1403 0 1643 -2
                  1672 -14z m-2516 -471 c39 -38 36 -98 -7 -136 -44 -40 -93 -40 -133 0 -31 31
                  -39 83 -19 121 28 53 113 61 159 15z m-889 -587 l0 -391 -112 6 c-120 7 -257
                  27 -375 54 -85 19 -83 10 -25 158 101 261 245 450 402 529 121 60 110 96 110
                  -356z m256 357 c100 -49 217 -174 307 -330 47 -82 122 -258 133 -313 l6 -30
                  -68 -16 c-118 -26 -255 -46 -371 -53 l-113 -6 0 393 0 392 28 -6 c15 -4 50
                  -18 78 -31z m-675 -62 c-104 -135 -201 -316 -257 -478 -15 -44 -28 -81 -29
                  -83 -10 -13 -315 132 -315 150 0 18 178 187 260 247 73 54 327 191 353 191 5
                  0 -1 -12 -12 -27z m1088 -24 c47 -22 130 -69 184 -106 100 -66 307 -254 307
                  -278 0 -26 -294 -166 -310 -148 -4 4 -18 40 -30 78 -37 117 -144 326 -214 419
                  -74 98 -74 98 63 35z m677 -673 c73 -156 116 -306 130 -465 l7 -71 -264 2
                  -264 3 -12 145 c-7 80 -22 194 -33 255 -10 60 -16 112 -12 116 4 3 34 16 67
                  29 65 25 212 97 260 128 l30 19 24 -35 c13 -19 43 -76 67 -126z m-2376 112
                  c40 -23 120 -61 179 -85 58 -24 105 -48 103 -53 -11 -47 -42 -265 -47 -336 -3
                  -49 -8 -108 -11 -132 l-5 -42 -262 2 -262 3 3 60 c7 130 68 348 134 480 44 88
                  79 145 88 145 4 0 40 -19 80 -42z m698 -223 c62 -9 161 -20 220 -23 l107 -7 0
                  -195 0 -195 -325 0 -325 0 3 75 c4 85 27 276 43 349 l10 48 77 -18 c42 -10
                  128 -25 190 -34z m1096 -55 c19 -111 36 -267 36 -327 l0 -43 -325 0 -325 0 0
                  198 0 199 118 6 c109 6 367 45 437 65 17 5 33 7 37 3 3 -3 13 -49 22 -101z
                  m2716 -440 l0 -460 -956 0 -956 0 7 28 c5 20 44 200 45 208 0 1 17 -4 38 -12
                  57 -20 121 -17 177 10 97 46 145 121 145 226 0 105 -48 180 -145 226 -56 27
                  -120 30 -177 10 -21 -8 -38 -13 -38 -12 -1 8 -40 188 -45 209 l-7 27 956 0
                  956 0 0 -460z m-1679 71 c62 -62 20 -171 -66 -171 -27 0 -44 8 -66 29 -62 62
                  -20 171 66 171 27 0 44 -8 66 -29z m-2607 -173 c3 -13 6 -33 6 -45 0 -55 75
                  -82 121 -44 19 15 24 28 23 65 l-1 46 329 0 328 0 -2 -192 -3 -193 -107 -7
                  c-126 -7 -302 -32 -410 -57 l-77 -18 -11 50 c-6 28 -18 59 -27 69 -23 25 -78
                  23 -104 -3 -19 -19 -21 -29 -16 -80 4 -32 8 -62 9 -68 2 -6 -45 -30 -103 -54
                  -59 -24 -139 -62 -180 -85 -40 -24 -78 -41 -84 -39 -17 7 -110 194 -143 288
                  -31 88 -66 242 -77 337 l-6 52 264 0 265 0 6 -22z m1606 -15 c-1 -82 -43 -402
                  -56 -424 -2 -4 -38 2 -80 12 -111 26 -273 49 -401 56 l-113 6 0 194 0 193 325
                  0 325 0 0 -37z m680 10 c0 -45 -28 -202 -49 -278 -26 -93 -80 -220 -132 -311
                  l-42 -73 -37 24 c-51 32 -184 97 -255 125 -33 13 -63 26 -67 29 -4 4 2 56 13
                  116 10 61 25 174 31 253 l12 142 263 0 263 0 0 -27z m2000 -618 l0 -115 -1045
                  0 -1045 0 31 53 c17 28 44 80 60 115 l29 62 985 0 985 0 0 -115z m-3480 -285
                  c0 -450 11 -414 -109 -354 -129 64 -270 230 -356 417 -33 72 -98 248 -93 252
                  10 7 149 36 238 49 149 22 157 23 243 25 l77 1 0 -390z m470 365 c52 -9 126
                  -23 164 -31 l68 -16 -6 -30 c-11 -55 -86 -231 -133 -313 -111 -193 -258 -330
                  -385 -361 l-28 -6 0 392 0 393 113 -6 c61 -4 155 -14 207 -22z m-1151 -167
                  c47 -149 157 -354 262 -490 11 -16 17 -28 12 -28 -24 0 -245 117 -326 172 -84
                  57 -287 245 -287 266 0 16 273 149 311 152 3 0 15 -33 28 -72z m1625 38 c110
                  -46 216 -105 216 -121 0 -24 -207 -212 -307 -278 -88 -59 -228 -132 -290 -151
                  -18 -6 -8 12 43 80 70 93 177 301 214 419 24 75 28 85 36 85 3 0 42 -15 88
                  -34z m-62 -685 c85 -76 -9 -209 -110 -157 -61 32 -72 108 -23 157 40 40 89 40
                  133 0z" />
    <path d="M3160 4331 c-75 -24 -138 -80 -165 -146 -22 -51 -22 -139 0 -193 21
                  -52 99 -124 153 -140 164 -49 324 68 323 238 0 32 -6 73 -14 92 -20 49 -73
                  106 -120 130 -44 22 -137 32 -177 19z m138 -176 c33 -39 30 -98 -7 -136 -85
                  -84 -210 28 -145 129 32 49 112 52 152 7z" />
    <path d="M4080 4331 c-101 -33 -170 -112 -185 -212 -8 -56 6 -110 44 -171 61
                  -96 192 -134 299 -88 198 85 203 356 9 456 -35 19 -131 27 -167 15z m110 -156
                  c59 -31 69 -107 21 -156 -40 -40 -89 -40 -133 0 -87 78 8 210 112 156z" />
    <path d="M4058 2795 c-143 -54 -205 -220 -133 -353 64 -118 213 -165 331 -104
                  178 92 177 353 -1 444 -50 26 -147 33 -197 13z m159 -170 c52 -60 16 -151 -63
                  -162 -36 -5 -46 -1 -75 25 -28 25 -34 37 -34 72 0 35 6 47 34 72 29 26 39 30
                  75 25 27 -4 49 -15 63 -32z" />
    <path d="M3142 1267 c-49 -15 -127 -90 -147 -139 -21 -53 -22 -142 -2 -189 20
                  -49 73 -106 121 -132 57 -30 165 -30 222 0 48 26 101 82 121 131 8 19 14 60
                  14 92 1 171 -164 290 -329 237z m149 -166 c55 -55 29 -153 -44 -166 -67 -13
                  -119 32 -119 102 0 29 7 43 31 65 43 39 92 38 132 -1z" />
    <path d="M4057 1266 c-57 -21 -100 -58 -132 -117 -85 -154 16 -345 194 -366
                  216 -25 355 242 212 408 -66 78 -179 108 -274 75z m154 -165 c49 -49 38 -125
                  -23 -157 -66 -34 -143 12 -143 88 0 33 6 45 33 69 44 40 93 40 133 0z" />
  </g>
</svg>