            <svg width="40" height="40" viewBox="0 0 22.175 22.176" xmlns="http://www.w3.org/2000/svg" fill="#DDE7F1">
              <g data-name="Layer 2" id="Layer_2">
                <g data-name="Layer 1" id="Layer_1-2">
                  <path d="M7.952,7.84a1.456,1.456,0,0,0,0-2.912A1.456,1.456,0,0,0,7.952,7.84Zm0-2.24a.784.784,0,0,1,0,1.568A.784.784,0,0,1,7.952,5.6ZM3.024,11.424H12.88a.337.337,0,0,0,.336-.336V3.024a.337.337,0,0,0-.336-.336H3.024a.337.337,0,0,0-.336.336v8.064A.337.337,0,0,0,3.024,11.424ZM3.36,3.36h9.184v7.392H10.528c-.045-.845.208-2.34-.454-3.013a.336.336,0,0,0-.52.426c.493.482.248,1.976.3,2.587H6.048c.056-.619-.192-2.1.3-2.587A.336.336,0,0,0,6.3,7.692c-.631-.348-.924.867-.927,1.317v1.743H3.36ZM20.5,0H1.68A1.682,1.682,0,0,0,0,1.68V17.808a1.682,1.682,0,0,0,1.68,1.68h4.7V21.5H4.368a.337.337,0,0,0,0,.673h13.44a.337.337,0,0,0,0-.673H15.792V19.488h4.7a1.682,1.682,0,0,0,1.679-1.68V1.68A1.682,1.682,0,0,0,20.5,0ZM15.119,21.5H7.056V19.488h8.063ZM21.5,17.808A1.009,1.009,0,0,1,20.5,18.816H1.68A1.01,1.01,0,0,1,.672,17.808V16.8H21.5Zm0-1.68H.672V1.68A1.009,1.009,0,0,1,1.68.672H20.5A1.009,1.009,0,0,1,21.5,1.68Zm-5.039-2.016H9.3a.336.336,0,0,1,0-.672h7.167A.336.336,0,0,1,16.464,14.112Zm-8.96,0H3.024a.336.336,0,0,1,0-.672H7.5A.336.336,0,0,1,7.5,14.112Zm11.648-2.688h-4.48a.336.336,0,0,1,0-.672h4.48A.336.336,0,0,1,19.152,11.424Zm-4.48-3.36h3.136a.336.336,0,0,1,0,.671H14.672A.336.336,0,0,1,14.672,8.064Zm4.48-2.017h-4.48a.336.336,0,0,1,0-.672h4.48A.336.336,0,0,1,19.152,6.047Zm0-2.688h-4.48a.336.336,0,0,1,0-.671h4.48A.336.336,0,0,1,19.152,3.359Z" data-name="online training" id="online_training" />
                </g>
              </g>
            </svg>