<svg xmlns="http://www.w3.org/2000/svg" xmlns:xlink="http://www.w3.org/1999/xlink"  width="100" height="100" viewBox="0 0 512.01 459.72">
  <defs>
    <style>
      .cls-1 {
        fill: url(#Degradado_sin_nombre_8);
      }

      .cls-2 {
        fill: url(#Degradado_sin_nombre_8-2);
      }

      .cls-3 {
        fill: #b02aff;
      }
    </style>
    <linearGradient id="Degradado_sin_nombre_8" x1="3914.33" y1="2396.72" x2="8098.68" y2="-1787.62" gradientTransform="translate(-344.7 156.45) scale(0.1)" gradientUnits="userSpaceOnUse">
      <stop offset="0" stop-color="#d91ab9" />
      <stop offset="1" stop-color="#b02aff" />
    </linearGradient>
    <linearGradient id="Degradado_sin_nombre_8-2" x1="120.07" y1="353.1" x2="417.8" y2="55.37" gradientTransform="matrix(1, 0, 0, 1, 0, 0)" xlink:href="#Degradado_sin_nombre_8" />
  </defs>
  <g id="Capa_2" data-name="Capa 2">
    <g id="Capa_1-2" data-name="Capa 1">
      <path class="cls-1" d="M30.5,1.12A43.55,43.55,0,0,0,6.3,19.82C-.4,30.92,0,21.62,0,187.22c0,122,.3,150.9,1.4,155,3.4,12.9,11.4,22.5,23.6,28.4l7.5,3.6,81.6.3,81.6.3-.8,4.2c-1.9,10.6-5.4,18.1-14.4,31.3-8.2,11.9-9.5,16.4-9.5,31.9,0,10.9.2,12.5,2.1,14.9l2,2.6H336.9l2-2.6c1.9-2.4,2.1-4,2.1-14.9,0-15.5-1.3-20-9.5-31.9-9-13.3-12.5-20.7-14.4-31.4l-.8-4.2h79.1c49.7,0,80.7-.4,83.5-1.1,14.9-3.4,27.6-15.9,31.7-31.3,1.1-4.2,1.4-31.2,1.4-155.1,0-165.6.4-156.3-6.3-167.4A43.8,43.8,0,0,0,487,3.32L480.5.22,257.5,0C79.3-.08,33.7.12,30.5,1.12Zm450.4,18.2a26.38,26.38,0,0,1,13,16.1c.8,2.8,1.1,47.1,1.1,137.7v133.6H17V172.92c0-111.6.2-134.7,1.4-138.5a25.19,25.19,0,0,1,12.8-15.1l5.2-2.6H475.6Zm13.9,312.1c-.7,11.3-5.2,18.7-14.3,23.6l-4,2.2H256c-213.1,0-220.6-.1-224-1.9-9.5-5-14.1-12.5-14.8-23.9l-.5-7.7H495.3Zm-195.2,47a97.48,97.48,0,0,0,17.3,40.7c5.5,7.4,7.1,11.6,7.1,18.8v4.8H188v-5.8c0-6.7,2-11.4,8-19.2,7.7-10.1,14.1-25.3,16.4-39.3l.7-3.7h85.8Z" />
      <path class="cls-2" d="M372.4,59.72c-5.5,2.2-7,9.5-2.9,13.5,2.3,2.4,3,2.5,15.2,2.5h12.8l-36,36c-19.8,19.8-36.2,36-36.5,36s-5-6.1-10.5-13.5c-10.1-13.6-13.2-16.3-17.7-15.2-1.3.4-18.3,14.8-37.8,32.1l-35.4,31.5-23.3-34.9c-12.8-19.2-24.1-35.4-25.2-35.9-5.7-3.1-5.4-3.3-59.3,41.5-28.2,23.4-52.3,43.8-53.5,45.3-2.2,2.5-2.3,3.3-2.5,29.6l-.3,27-10.8.5c-9.4.4-11.1.8-12.3,2.5-3.5,4.7-2.3,10.7,2.6,13.2,2,1,39.8,1.2,188.3,1l185.9-.2,2.4-2.8c3.1-3.7,3.1-8.1-.1-11.2-2.3-2.4-2.8-2.5-17-2.5H384V114.22l13-13,13-13V101c0,12.2.1,12.9,2.5,15.2,3.1,3.2,7.5,3.2,11.2.1l2.8-2.4.3-22.4c.2-14.6-.1-23.6-.8-26.1-1.8-6.2-4.2-6.7-29.7-6.6C384.3,58.82,373.5,59.22,372.4,59.72Zm-5.4,134v62H333v-90.5l16.7-16.7c9.2-9.3,16.9-16.8,17-16.8S367,159.62,367,193.72Zm-205,3v59H128v-45.3l.1-45.2,16.7-13.8c9.1-7.5,16.8-13.7,16.9-13.7S162,164.22,162,196.72Zm153.8,13.2-.3,45.3-16.7.3-16.8.2.1-51.2v-51.3l7.7-6.6,7.6-6.7,9.3,12.4,9.3,12.4Zm-118.9-36.5,16.1,24.3v58l-16.7-.2-16.8-.3-.3-54c-.1-31.3.2-53.5.7-53S188,160.12,196.9,173.42Zm67.9,39-.3,42.8h-34l-.3-27.7-.2-27.6,16.7-15.1c9.3-8.2,17.1-15,17.6-15S264.9,188.92,264.8,212.42ZM111,217.72v38H77v-47.8l16.8-14c9.2-7.7,16.8-14.1,17-14.1S111,196.82,111,217.72Z" />
      <path class="cls-3" d="M423,154c-5.5,2.8-6.4,9.4-1.8,13.7,2.1,1.9,3.4,2,26.8,2s24.7-.1,26.8-2c3-2.8,3.8-6.8,2.1-9.9-2.7-4.7-4.8-5.1-28.9-5.1C432,152.72,424.8,153.12,423,154Z" />
      <path class="cls-3" d="M423,188c-5.4,2.7-6.3,9.4-2,13.7,1.9,1.9,3.4,2,27,2s25.1-.1,27-2a8.49,8.49,0,0,0-2-13.7C469.5,186.22,426.5,186.22,423,188Z" />
      <path class="cls-3" d="M457.4,222.12a8.21,8.21,0,0,0,.2,15.2,20.48,20.48,0,0,0,15.4-.4,7.91,7.91,0,0,0-.5-14.7C468.2,220.42,461.5,220.32,457.4,222.12Z" />
    </g>
  </g>
</svg>