<svg xmlns="http://www.w3.org/2000/svg" xmlns:xlink="http://www.w3.org/1999/xlink" viewBox="0 0 242 160"><defs><style>.cls-1{fill:url(#Degradado_sin_nombre_66);}.cls-2{fill:url(#Degradado_sin_nombre_48);}.cls-3,.cls-6{fill:none;}.cls-3{stroke-linecap:round;stroke-miterlimit:10;stroke-width:3px;stroke:url(#Degradado_sin_nombre_53);}.cls-4{fill:url(#Degradado_sin_nombre_55);}.cls-5{fill:url(#Degradado_sin_nombre_8);}</style><linearGradient id="Degradado_sin_nombre_66" x1="96.37" y1="35.56" x2="96.37" y2="88.77" gradientUnits="userSpaceOnUse"><stop offset="0" stop-color="#ff7bac"/><stop offset="1" stop-color="#da17ac"/></linearGradient><linearGradient id="Degradado_sin_nombre_48" x1="136.85" y1="120.41" x2="136.85" y2="75.77" gradientUnits="userSpaceOnUse"><stop offset="0" stop-color="#3029f2"/><stop offset="0.1" stop-color="#5226e7"/><stop offset="0.24" stop-color="#7b22d9"/><stop offset="0.38" stop-color="#9d1fcd"/><stop offset="0.53" stop-color="#b71dc4"/><stop offset="0.68" stop-color="#ca1bbe"/><stop offset="0.83" stop-color="#d51aba"/><stop offset="1" stop-color="#d91ab9"/></linearGradient><linearGradient id="Degradado_sin_nombre_53" x1="98.47" y1="72.71" x2="140.23" y2="72.71" gradientUnits="userSpaceOnUse"><stop offset="0" stop-color="#3029f2"/><stop offset="0.34" stop-color="#b02aff"/><stop offset="0.46" stop-color="#c024e4"/><stop offset="0.67" stop-color="#d91ab9"/><stop offset="0.73" stop-color="#df29b6"/><stop offset="0.91" stop-color="#f157af"/><stop offset="1" stop-color="#f869ac"/></linearGradient><linearGradient id="Degradado_sin_nombre_55" x1="195.75" y1="109.21" x2="195.75" y2="42.02" gradientUnits="userSpaceOnUse"><stop offset="0" stop-color="#3029f2"/><stop offset="0.33" stop-color="#b02aff"/><stop offset="0.46" stop-color="#c024e4"/><stop offset="0.67" stop-color="#d91ab9"/><stop offset="0.73" stop-color="#df29b6"/><stop offset="0.91" stop-color="#f157af"/><stop offset="1" stop-color="#f869ac"/></linearGradient><linearGradient id="Degradado_sin_nombre_8" x1="118.42" y1="-287.98" x2="118.42" y2="-355.17" gradientTransform="translate(170.46 -245.55) rotate(-179.96)" gradientUnits="userSpaceOnUse"><stop offset="0" stop-color="#f869ac"/><stop offset="0.09" stop-color="#f157af"/><stop offset="0.27" stop-color="#df29b6"/><stop offset="0.33" stop-color="#d91ab9"/><stop offset="0.54" stop-color="#c024e4"/><stop offset="0.67" stop-color="#b02aff"/><stop offset="1" stop-color="#3029f2"/></linearGradient></defs><g id="Capa_2" data-name="Capa 2"><g id="Capa_2-2" data-name="Capa 2"><path class="cls-1" d="M91.68,67.77h17.69l.79,2.38,3.66-5.9-10.3-28.69-3.38,1L85.72,81A15,15,0,0,1,83,86.23a6.1,6.1,0,0,1-4.11,2v.56h12v-.56a5.44,5.44,0,0,1-3-.72c-.72-.48-1.08-1.44-1.08-2.89a14.5,14.5,0,0,1,.83-4.16Zm8.93-27h.14l8.58,25H92.56Z"/><path class="cls-2" d="M152.92,85.77H153a9.59,9.59,0,0,0-5.12-6.39,19.38,19.38,0,0,0-9.48-2.27,24.15,24.15,0,0,0-5.95.81,18.6,18.6,0,0,0-6.19,3,16,16,0,0,0-5,6.22,23.21,23.21,0,0,0-2,10.24q0,9.84,4.83,15.72T139.61,119a25.9,25.9,0,0,0,6.21-.54,4.11,4.11,0,0,0,2.54-1.49,5,5,0,0,0,.56-2.54v-7.72c0-1.83-.42-3-1.25-3.63a8.12,8.12,0,0,0-3.75-1.17v-.09h14V102a7.22,7.22,0,0,0-2.92.82,3,3,0,0,0-1.37,1.58c-.23.65-.34,1.51-.71,2.57v11.72a45,45,0,0,1-12.61,1.69,41,41,0,0,1-6.83-.57,22.86,22.86,0,0,1-7-2.55,19.28,19.28,0,0,1-6.46-5.83,21.82,21.82,0,0,1-4.2-13.12A22.79,22.79,0,0,1,122,82.84a21.25,21.25,0,0,1,7.3-5A24.14,24.14,0,0,1,138.83,76a28.88,28.88,0,0,1,4,.27c1.29.18,3.23.54,5.8,1.1a11.11,11.11,0,0,0,2.17.34c.94,0,1.62-.47,2.06-1.91h.09Z"/><line class="cls-3" x1="99.97" y1="104.21" x2="138.73" y2="41.21"/><path class="cls-4" d="M218.82,75.69c.11,2.69-1.34,4.65-3.64,6.2q-16.85,11.43-33.66,22.9c-1.72,1.17-3.41,2.38-5.14,3.53-1.07.71-2.34,1.5-3.31.15-1.1-1.55.29-2.39,1.4-3.15l32.41-22.07c2.07-1.4,4.12-2.82,6.17-4.25,3.08-2.14,3-4.76-.11-6.92Q197.49,61.51,182,51q-3.93-2.68-7.82-5.38c-1-.7-2-1.56-1.09-2.85s2.07-.63,3.09.06q19.73,13.41,39.44,26.83A6.77,6.77,0,0,1,218.82,75.69Z"/><path class="cls-5" d="M28.77,75.87c-.11-2.7,1.35-4.66,3.64-6.21q16.86-11.4,33.68-22.87c1.72-1.17,3.41-2.38,5.15-3.53,1.06-.71,2.34-1.5,3.3-.15,1.1,1.56-.29,2.39-1.4,3.15L40.71,68.31c-2.06,1.4-4.12,2.82-6.17,4.24-3.08,2.15-3.05,4.76.11,6.92Q50.1,90.06,65.57,100.62q3.92,2.67,7.81,5.38c1,.7,2,1.56,1.09,2.85s-2.07.63-3.09-.06Q51.67,95.37,32,81.93A6.75,6.75,0,0,1,28.77,75.87Z"/><rect class="cls-6" width="242" height="160"/></g></g></svg>