<svg xmlns="http://www.w3.org/2000/svg" xmlns:xlink="http://www.w3.org/1999/xlink" viewBox="0 0 190.06 100.68">
  <defs>
    <style>
      .cls-1 {
        fill: url(#Degradado_sin_nombre_66);
      }

      .cls-2 {
        fill: url(#Degradado_sin_nombre_48);
      }

      .cls-3 {
        fill: none;
        stroke-linecap: round;
        stroke-miterlimit: 10;
        stroke-width: 3px;
        stroke: url(#Degradado_sin_nombre_53);
      }

      .cls-4 {
        fill: url(#Degradado_sin_nombre_7);
      }

      .cls-5 {
        fill: url(#Degradado_sin_nombre_8);
      }
    </style>
    <linearGradient id="Degradado_sin_nombre_66" x1="67.61" x2="67.61" y2="53.21" gradientUnits="userSpaceOnUse">
      <stop offset="0" stop-color="#ff7bac" />
      <stop offset="1" stop-color="#da17ac" />
    </linearGradient>
    <linearGradient id="Degradado_sin_nombre_48" x1="108.09" y1="84.85" x2="108.09" y2="40.21"
      gradientUnits="userSpaceOnUse">
      <stop offset="0" stop-color="#3029f2" />
      <stop offset="0.1" stop-color="#5226e7" />
      <stop offset="0.24" stop-color="#7b22d9" />
      <stop offset="0.38" stop-color="#9d1fcd" />
      <stop offset="0.53" stop-color="#b71dc4" />
      <stop offset="0.68" stop-color="#ca1bbe" />
      <stop offset="0.83" stop-color="#d51aba" />
      <stop offset="1" stop-color="#d91ab9" />
    </linearGradient>
    <linearGradient id="Degradado_sin_nombre_53" x1="69.7" y1="37.15" x2="111.47" y2="37.15"
      gradientUnits="userSpaceOnUse">
      <stop offset="0" stop-color="#3029f2" />
      <stop offset="0.34" stop-color="#b02aff" />
      <stop offset="0.46" stop-color="#c024e4" />
      <stop offset="0.67" stop-color="#d91ab9" />
      <stop offset="0.73" stop-color="#df29b6" />
      <stop offset="0.91" stop-color="#f157af" />
      <stop offset="1" stop-color="#f869ac" />
    </linearGradient>
    <linearGradient id="Degradado_sin_nombre_7" x1="166.98" y1="73.65" x2="166.98" y2="6.47"
      gradientUnits="userSpaceOnUse">
      <stop offset="0" stop-color="#3029f2" />
      <stop offset="0.33" stop-color="#b02aff" />
      <stop offset="0.46" stop-color="#c024e4" />
      <stop offset="0.67" stop-color="#d91ab9" />
      <stop offset="0.73" stop-color="#df29b6" />
      <stop offset="0.91" stop-color="#f157af" />
      <stop offset="1" stop-color="#f869ac" />
    </linearGradient>
    <linearGradient id="Degradado_sin_nombre_8" x1="111.59" y1="-18.01" x2="111.59" y2="-85.2"
      gradientTransform="translate(134.7 -11.14) rotate(-179.96)" gradientUnits="userSpaceOnUse">
      <stop offset="0" stop-color="#f869ac" />
      <stop offset="0.09" stop-color="#f157af" />
      <stop offset="0.27" stop-color="#df29b6" />
      <stop offset="0.33" stop-color="#d91ab9" />
      <stop offset="0.54" stop-color="#c024e4" />
      <stop offset="0.67" stop-color="#b02aff" />
      <stop offset="1" stop-color="#3029f2" />
    </linearGradient>
  </defs>
  <g id="Capa_2" data-name="Capa 2">
    <g id="Capa_2-2" data-name="Capa 2">
      <path class="cls-1"
        d="M62.92,32.21H80.61l.79,2.38,3.66-5.9L74.76,0,71.38,1,57,45.4a14.7,14.7,0,0,1-2.69,5.27,6,6,0,0,1-4.11,2v.56h12v-.56a5.48,5.48,0,0,1-3-.72C58.39,51.45,58,50.49,58,49a14.22,14.22,0,0,1,.83-4.16Zm8.92-27H72l8.58,25H63.8Z" />
      <path class="cls-2"
        d="M124.15,50.21h.07a9.66,9.66,0,0,0-5.12-6.39,19.5,19.5,0,0,0-9.49-2.27,24.15,24.15,0,0,0-6,.81,18.79,18.79,0,0,0-6.19,3,16.16,16.16,0,0,0-5,6.22,23.36,23.36,0,0,0-2,10.24q0,9.84,4.83,15.72t15.53,5.89a25.75,25.75,0,0,0,6.2-.54,4.07,4.07,0,0,0,2.55-1.49,5,5,0,0,0,.55-2.54V71.1c0-1.83-.41-3-1.25-3.63a8.12,8.12,0,0,0-3.75-1.17v-.09h14v.26a7.38,7.38,0,0,0-2.91.82,3,3,0,0,0-1.37,1.58c-.23.65-.35,1.51-.72,2.58V83.16a44.9,44.9,0,0,1-12.6,1.69,40.88,40.88,0,0,1-6.83-.57,23.09,23.09,0,0,1-7-2.54,19.4,19.4,0,0,1-6.46-5.83A21.84,21.84,0,0,1,87,62.79a22.67,22.67,0,0,1,6.16-15.51,21.39,21.39,0,0,1,7.3-5,24.09,24.09,0,0,1,9.57-1.84,28.92,28.92,0,0,1,4,.27q1.93.27,5.8,1.1a11.11,11.11,0,0,0,2.17.34c.93,0,1.62-.46,2.06-1.91h.08Z" />
      <line class="cls-3" x1="71.2" y1="68.65" x2="109.97" y2="5.65" />
      <path
        d="M47,94.27l-.14.23a.29.29,0,0,1,.08.14s0,0,0,0a.41.41,0,0,1,0,.08,1.44,1.44,0,0,0-.07.22,1.58,1.58,0,0,1-.09.31,1.1,1.1,0,0,1-.09.23.64.64,0,0,1-.06.12l0,0L46.4,96l-.14.25v0l-.5.66-.07.26-.24.28-.15.35-.17.07-.08.15a.52.52,0,0,0-.19.28l-.07.17-.12.1-.07.15-.3.42,0,.14a.35.35,0,0,1-.07.15l-.13.15v.22l-.11.2.08.49a.44.44,0,0,1-.24.12.15.15,0,0,1-.1,0l-.16-.08-.16-.45-.26-.45v-.34l-.24-.21-.13-.31a.81.81,0,0,1-.13-.28l-.08-.25a.84.84,0,0,0-.13-.27l-.08-.13a.2.2,0,0,1-.06-.14l0-.2-.12-.08L42,97l-.2-.44,0-.08a1,1,0,0,1-.23-.56v-.06q-.09,0-.18.24l-.13.12a1.94,1.94,0,0,0-.4.3h0c0,.07,0,.12-.12.17l-.17.09a.24.24,0,0,0-.14,0,.75.75,0,0,0-.17.18,1.85,1.85,0,0,1-.16.18l-.14.12-.27.36-.29.46-.22.17a.68.68,0,0,0-.14.24.8.8,0,0,1-.06.18l-.14,0v.15l-.1,0-.08.24a.84.84,0,0,0-.13.27.14.14,0,0,0-.09.12l0,.06v0a.29.29,0,0,0,.07.18h-.08l.05.12a.28.28,0,0,1-.12.16l0,.08v.06c0,.13,0,.19-.14.19a.18.18,0,0,1-.16-.07l-.32-.47-.06-.17-.34-.59-.13-.5-.22-.43L37,98l-.15-.27-.12-.45v-.15l-.29-1,0-.16-.06-.07,0,0,0-.1s0-.08-.05-.13v-.21l-.06-.52-.08-.12.07-.2a.26.26,0,0,0,.07-.18v-.06c0-.12.07-.18.14-.18a.33.33,0,0,1,.25.13.53.53,0,0,1,.11.36v0l0,.08.05.06L36.8,95v.19l.15,1,0,.11.13.27.13.76.07.16.1.5.09,0v.15l.06.12a1.77,1.77,0,0,1,0,.31l.08,0,.06.32.08,0q.15.34.27.36a2.92,2.92,0,0,1,.15-.34h.1l.2-.25,0-.15a.58.58,0,0,1,.15-.2v-.11s.08-.09.25-.2l0-.21.27-.28.08-.19.17-.07c0-.19.09-.29.24-.31l0-.1c.11,0,.17,0,.17-.06v0l.08-.11a.2.2,0,0,1,.14-.14c.16-.09.24-.17.24-.26v0h.13a.72.72,0,0,0,.15-.33h.08l.12-.21H41s.09,0,.15-.11v-.23l.11-.14a.29.29,0,0,0,0-.14l0-.24c.14-.09.21-.15.21-.2a0,0,0,0,0,0,0h.19A.74.74,0,0,0,42,95l0,.17,0,.31,0,.37.3.74,0,.17.07.13a1.08,1.08,0,0,1,.07.28l.11.07.13.67.1.2a1.46,1.46,0,0,1,.08.31l.14.13.21.51a2.68,2.68,0,0,0,.43.69h0s0,0,0,0l0-.35.15-.1,0-.14a1.5,1.5,0,0,1,.23-.15l.11-.23,0-.12a.73.73,0,0,1,.15-.22.21.21,0,0,0,.15-.21v0l.17,0,.14-.27.3-.33.26-.48.18-.26.15-.32.16-.17a1.23,1.23,0,0,0,.18-.35l.18-.47-.07-.09.12-.25,0-.1.09,0v-.2l-.1-.12a.67.67,0,0,1,.1-.34l0-.08h.08c0-.15.09-.22.16-.22a.17.17,0,0,1,.14.07Z" />
      <path
        d="M53.84,94.07a.23.23,0,0,1-.06.13h-.13l-.09.06-.16-.06-.19,0c-.1,0-.15,0-.17,0a.13.13,0,0,0-.09,0,.45.45,0,0,0-.15.07.34.34,0,0,0-.16,0,.7.7,0,0,0-.23.06.93.93,0,0,1-.24.07l-.16,0h-.16a.1.1,0,0,0-.1.07.34.34,0,0,0-.19-.07.56.56,0,0,0-.35.15l-.12-.07-.11.07-.27-.09-.19.11H50.3l-.31.08a.89.89,0,0,0-.29.12l-.11-.08-.21.17h-.22L49,95l.06.23c-.08,0-.11.13-.11.31v.35l0,.05L48.9,96l.05.07a.82.82,0,0,0-.09.33c0,.18.1.26.31.26l.15,0h.21l.19,0,.19-.07.18.06.13,0h.11l.19,0,.1,0h0a.51.51,0,0,0,.21-.08.4.4,0,0,0,.25,0l.21,0,.16,0,.26,0s0,0,.07-.07l.36.06h.13l.41,0,.22,0s.06-.07.14-.07l.28,0,.11,0,.15.06.16,0,0,.15a1.07,1.07,0,0,1-.31.08l-.12,0-.18,0-.31.15-.27,0-.15.06-.11,0-.19.11-.13,0h-.48a.26.26,0,0,0-.16.07l-.17,0-.08.08L50.91,97l-.08.09-.23-.11-.17.11-.19,0h-.09a1,1,0,0,0-.25,0l-.14,0-.43,0-.1-.05a1.27,1.27,0,0,1-.36.1l-.09.23.11.62-.07.08.08.19v.22l0,.06a2.14,2.14,0,0,1,.06.35l.11.12-.06.2.12,0,.22.33a1.31,1.31,0,0,0,.79.35l.22,0,.25-.05,0-.06H51a.79.79,0,0,0,.25-.13c.11,0,.18,0,.2-.05l.13,0a.38.38,0,0,0,.13-.06l.16-.13a.85.85,0,0,1,.19-.19h.15l.3-.27a.56.56,0,0,0,.44-.38l.08,0,0-.19h.16l0-.18h0a.18.18,0,0,1,.16.14l-.41.53-.15,0a1.4,1.4,0,0,1-.29.37l-.29.2-.2.19-.08,0-.15.16-.55.23-.13.17-.19-.06-.06.09h0l-.09.08-.33-.07-.39.18-.29-.11-.49-.25a1.21,1.21,0,0,1-.38-.34,2.73,2.73,0,0,1-.34-.74,3.5,3.5,0,0,1-.17-.55l0-.17L48.32,98l.09-.1-.11-.65-.19-.23a.29.29,0,0,1,0-.12c0-.14,0-.23.1-.27l.11,0v-.08c0-.05,0-.09.11-.1l0-.17,0-.07v-.34l0-.14.13-.37.09-.32-.15-.19-.26,0h0a.16.16,0,0,1-.11,0A.14.14,0,0,1,48,94.7a.53.53,0,0,1,.16-.29s.07,0,.08-.07l.25-.08s.05,0,.08.06a.11.11,0,0,1,.1-.08c.11,0,.17,0,.17-.11a.16.16,0,0,0,0-.08l.4,0,.07.13a.62.62,0,0,1,.38-.13h.08L50,94a.6.6,0,0,0,.24-.08V94a.45.45,0,0,1,.3-.09h.24l1.14-.11.26.11.08-.15a.11.11,0,0,0,.1.09l.11,0,.13.08.09-.08.21.09.14,0,.07.06.39,0,.06,0C53.73,94,53.83,94,53.84,94.07Z" />
      <path
        d="M61.76,98.29l-.07.2,0,.1a2.9,2.9,0,0,0-.21.34l-.13,0-.12.14-.27.12a.44.44,0,0,0-.11.09l-.14.17-.29-.1c-.06,0-.15.09-.26.29L60,99.6l-.29.1-.06,0a1.29,1.29,0,0,1-.32.18.84.84,0,0,1-.29.08h-.15l-.2.17-.1-.07-.13.08-.22-.06a.44.44,0,0,1-.26.1l-.28,0-.11.17-.18-.08h-.18l-.07,0a.4.4,0,0,0-.22.12s-.05,0-.12,0a1.66,1.66,0,0,1-.26,0l-.17.19-.18-.07v0a.11.11,0,0,0,0-.1.11.11,0,0,1-.1,0H56l-.15-.37v-.18l0-.25.07-.23,0-.26.07-.23,0-.19,0-.17a.22.22,0,0,0,0-.09.39.39,0,0,0,0-.14L55.87,98l0-.38a.57.57,0,0,1-.3-.08.69.69,0,0,1-.13-.11.53.53,0,0,1,.17-.25l.14-.1a.1.1,0,0,1,.08,0l.05-.16.07,0-.07-.24.09,0-.07-.28.05-.07-.08-.21.08-.17-.07-.06v-.15a.47.47,0,0,0,0-.17l-.1-.2,0-.23-.1,0,0-.22-.07-.15-.1-.34-.19-.19a.28.28,0,0,0-.19.1L55,94.26l-.11.06-.08-.08-.09.08v-.06l-.18,0-.28.18c-.24-.13-.35-.25-.35-.38S54,94,54,94h.07c.06-.13.13-.21.22-.21l.17.08.08,0a3.54,3.54,0,0,1,.52,0l.15,0,.14,0,.07,0h.08l.1.09.14,0,.27.11.75.11.14,0a1,1,0,0,1,.23,0l.2,0s.07,0,.15.1a1,1,0,0,0,.5.14h.06l.17,0,.07.09a.3.3,0,0,1,.11,0s.06,0,.08.06a.09.09,0,0,0,.08.06l.32,0a.62.62,0,0,0,.47.22l.1,0,.18.15h.2l0,.1.24.15,0,.23a2.38,2.38,0,0,1-.19.34.77.77,0,0,1-.13.12.61.61,0,0,1-.17.07,1.22,1.22,0,0,0-.2.1l-.11,0-.25.19-.09,0c-.06,0-.1,0-.13.15a.15.15,0,0,0-.11,0s-.05,0-.06,0h-.1l-.16.18-.22,0a.38.38,0,0,1-.13.09.59.59,0,0,1-.19,0l-.23.06-.07.09h-.12l-.14.09-.17.08-.23.05-.06.07a.61.61,0,0,0-.21.07.43.43,0,0,1-.16.05.39.39,0,0,0-.09.17s0,0,0,0H57l.66,0,.12,0,.63.11.11,0c.1.08.16.13.19.13s0,0,0-.06h0l.1,0a.55.55,0,0,0,.24,0h.09a.82.82,0,0,0,.34.09.32.32,0,0,0,.2-.06,1.54,1.54,0,0,0,.49.06l.14.09.14,0,.39.17H61a.47.47,0,0,0,.3.14.69.69,0,0,0,.25.19A.76.76,0,0,1,61.76,98.29Zm-2.11-3-.22-.12a1,1,0,0,1-.17-.18h-.18l-.09,0c-.18,0-.27-.05-.28-.12l-.1.08-.13-.11-.12,0a.47.47,0,0,1-.17-.09l-.12.07-.16-.1h-.15l-.22,0-.12,0-.2,0-.15-.15-.18,0-.12-.07-.08.09-.17-.07-.18.08-.19,0-.09.1.17.17v.3l.07.22-.07.19.1.31,0,.28.06.18-.05.19v.36c0,.06.05.1.14.12a.27.27,0,0,1,.21-.17l.28-.08q.13,0,.15-.09l.17,0,0-.08.26,0,.06-.15a.22.22,0,0,0,.14,0,.31.31,0,0,0,.2-.11h.15a.51.51,0,0,1,.34-.26,1.21,1.21,0,0,0,.31-.1L59,95.8h.15l.06-.13.24,0,.09-.11v-.06h0C59.61,95.46,59.65,95.39,59.65,95.25Zm1.52,3.49a.26.26,0,0,0,0-.18v-.09l-.15-.24-.19,0-.09-.13-.14,0L60.41,98l-.2,0-.1-.08-.24,0a.4.4,0,0,0-.24-.1.2.2,0,0,0-.17.08.35.35,0,0,1-.11-.09h-.12l-.77,0-.27-.13-.09,0-.11,0a.82.82,0,0,0-.38.14l-.16-.12-.21,0,0,.09-.24,0a.39.39,0,0,0-.27-.1c-.27,0-.4.12-.4.38l0,.12,0,.18.08.15-.05.16V99l.06.12a.53.53,0,0,1,0,.2l-.09.26.06.11,0,.11.07,0,0,.18.15.08.44,0,.19-.06h.28l.12,0a.65.65,0,0,0,.35-.16l.13,0,.59-.13.23-.12.17,0,.32-.19h.32a4.08,4.08,0,0,0,.58-.27h.19l.06-.14.43-.14.07-.15Z" />
      <path
        d="M72.21,97.89l0,.08a.39.39,0,0,0,0,.14v.09l-.22.31,0,.12-.15.07a.64.64,0,0,0-.16.14,1.4,1.4,0,0,0-.44.2H71l-.11,0,0,.1h-.2l0,0h-.08l-.07.06a.23.23,0,0,1-.14.08.16.16,0,0,0-.1,0,.63.63,0,0,0-.25.09l-.21,0-.14.1-.08,0-.17,0-.19,0h-.08a.85.85,0,0,0-.23.06,1.33,1.33,0,0,1-.3,0l-.17,0-.18,0-.19-.08-.12.08-.07,0-.09.17-.1-.09-.15.07,0-.09a.46.46,0,0,1-.2,0l0,.24-.14.18,0,.12a2.34,2.34,0,0,1-.2.3l0,0h-.06l0-.2,0-.3-.17-.12a.19.19,0,0,0-.12-.06l-.25.12H66L66,99.87l0-.1.1-.11v-.08l.43-.11.12,0s.07,0,.07,0h0l-.07-.24a.13.13,0,0,1,0-.06.2.2,0,0,1,0-.1.14.14,0,0,0,0-.07l0-.58.06-.14v-.27l.08-.2-.14-.26.14-.31-.07-.82,0-.28v-.25l-.1-.27v-.43l-.14-.22v-.12l-.32,0-.25.11-.39,0a.35.35,0,0,1-.06-.18c0-.07,0-.17-.07-.3a.59.59,0,0,1,.31-.14h.1s0,0,.09-.07a1.62,1.62,0,0,1,.41,0,.51.51,0,0,0,.29.1l.13,0c0,.05,0,.07.07.07a.89.89,0,0,0,.21-.07l.15.07.17,0,.36.08.21.14.26,0,.09.15.14,0,.21.12.14,0,.17.08H69a.32.32,0,0,1,.23.1c.15,0,.32.12.53.35h.11a.73.73,0,0,0,.38.2l.27.22.32.28a.25.25,0,0,0,.14.07L71,96l0,0,0,.19a3.44,3.44,0,0,1,.47.47,1,1,0,0,1,.19.29c0,.06.06.11.16.17v.15a.32.32,0,0,0,.1.23.25.25,0,0,0,.09.2c.05.06.08.1.08.13Zm-.44.07,0-.33L71.25,97h-.08L71,96.65h-.15l-.15-.12,0-.17a1.17,1.17,0,0,0-.45-.21L70.15,96l-1-.58H69a.46.46,0,0,1-.22-.07.16.16,0,0,0-.14-.08.13.13,0,0,0-.08,0l-.06-.14h-.18l-.14,0A.66.66,0,0,1,68,95l0,0s0-.08-.1-.08a1.05,1.05,0,0,0-.66-.19l-.09,0,0,.14-.06.18a.12.12,0,0,0,0,.09.26.26,0,0,0,.11.19l-.12.2a.54.54,0,0,0,.06.16.48.48,0,0,1,.06.21.27.27,0,0,1,0,.1.51.51,0,0,0,0,.1.84.84,0,0,0,.06.18l-.09,0,0,.25v.46l0,.08-.14.21.09.09-.11.3,0,.27-.12.28.12.23,0,.24,0,.13L67,99.1l.11.29.74-.09.07,0a.19.19,0,0,1,.1,0l.21,0,.23,0a1,1,0,0,0,.56-.19h.59a.36.36,0,0,0,.25-.1.48.48,0,0,0,.23-.07.35.35,0,0,1,.15-.07.16.16,0,0,1,.11,0,.26.26,0,0,0,.19-.08l.21,0,0-.12.08,0,.13-.06h.09l.11-.13h.08l.46-.35Z" />
      <path
        d="M79.52,94.07a.23.23,0,0,1-.06.13h-.13l-.09.06-.16-.06-.19,0c-.1,0-.15,0-.17,0a.12.12,0,0,0-.08,0,.4.4,0,0,0-.16.07.29.29,0,0,0-.16,0,.7.7,0,0,0-.23.06,1,1,0,0,1-.23.07l-.17,0h-.16a.11.11,0,0,0-.1.07.34.34,0,0,0-.19-.07.56.56,0,0,0-.35.15l-.12-.07-.1.07-.28-.09-.19.11H76l-.3.08a.84.84,0,0,0-.3.12l-.11-.08-.21.17h-.22l-.15.28,0,.23c-.07,0-.11.13-.11.31v.35l0,.05-.08.07,0,.07a.82.82,0,0,0-.09.33c0,.18.1.26.32.26l.15,0h.2l.2,0,.18-.07.19.06.12,0H76l.18,0,.1,0h0a.51.51,0,0,0,.21-.08.42.42,0,0,0,.25,0l.21,0,.16,0,.26,0s0,0,.07-.07l.37.06H78l.41,0,.22,0s.06-.07.14-.07l.28,0,.11,0,.15.06.16,0,0,.15a1.07,1.07,0,0,1-.31.08l-.12,0-.18,0-.31.15-.27,0-.15.06-.11,0-.19.11-.13,0h-.48A.26.26,0,0,0,77,97l-.16,0-.09.08L76.6,97l-.09.09-.23-.11-.16.11-.2,0h-.09a1,1,0,0,0-.25,0l-.14,0-.43,0-.1-.05a1.27,1.27,0,0,1-.36.1l-.09.23.11.62-.07.08.08.19v.22l0,.06a2.14,2.14,0,0,1,.06.35l.11.12-.06.2.12,0,.22.33a1.34,1.34,0,0,0,.79.35l.22,0,.25-.05.05-.06h.27a.79.79,0,0,0,.25-.13c.11,0,.18,0,.2-.05l.13,0a.38.38,0,0,0,.13-.06l.17-.13a.64.64,0,0,1,.18-.19h.16l.29-.27a.56.56,0,0,0,.44-.38l.08,0,0-.19h.15l0-.18h0c.08,0,.13.05.16.14l-.41.53-.15,0a1.76,1.76,0,0,1-.28.37l-.3.2-.2.19-.08,0-.14.16-.55.23-.13.17-.2-.06-.06.09h0l-.09.08-.32-.07-.4.18-.29-.11-.49-.25a1.21,1.21,0,0,1-.38-.34,3.08,3.08,0,0,1-.34-.74,3.5,3.5,0,0,1-.17-.55l0-.17L74,98l.09-.1L74,97.29l-.18-.23a.17.17,0,0,1,0-.12.31.31,0,0,1,.1-.27l.11,0v-.08c0-.05,0-.09.11-.1l0-.17,0-.07v-.34l0-.14.13-.37a2.54,2.54,0,0,1,.1-.32l-.16-.19-.26,0h0a.17.17,0,0,1-.12,0,.13.13,0,0,1,0-.11.5.5,0,0,1,.15-.29.22.22,0,0,0,.09-.07l.24-.08s0,0,.08.06a.11.11,0,0,1,.1-.08c.12,0,.17,0,.17-.11a.16.16,0,0,0,0-.08l.4,0,.07.13a.62.62,0,0,1,.38-.13h.09l.25-.06a.6.6,0,0,0,.24-.08V94a.45.45,0,0,1,.3-.09h.24l1.14-.11.26.11.09-.15q0,.09.09.09l.11,0,.13.08.09-.08.21.09.15,0,.07.06.38,0,.06,0C79.41,94,79.51,94,79.52,94.07Z" />
      <path
        d="M87,94.49c.06,0,.09.05.1.13s0,.11,0,.13l0,.19-.13.15-.08.25-.12.12-.14.24a.55.55,0,0,0-.12.34.41.41,0,0,1-.16.25.3.3,0,0,0-.13.18.23.23,0,0,1-.08.17.93.93,0,0,1-.14.14.57.57,0,0,0-.1.13l0,.06-.29.32-.17.39-.22.28-.15.25-.09.08-.14.2-.42.52-.19.33-.25.2a.71.71,0,0,1-.15.34l0,.42a.41.41,0,0,1-.09.18.16.16,0,0,1-.11,0q-.09,0-.15-.12a1.58,1.58,0,0,0-.13-.26l-.11-.19-.12-.3a2.19,2.19,0,0,1-.25-.43l-.13-.39-.13-.23v-.24l-.2-.47-.28-.55-.32-.49-.13-.4-.18-.1L81.28,96l-.11-.09-.2-.32-.11-.21c0-.07-.09-.11-.13-.11h0a1.51,1.51,0,0,1-.39-.38v-.14a.61.61,0,0,1,.08-.25l.11,0a.49.49,0,0,1,.25,0,.12.12,0,0,0,.13.09l.15.29.13.12.23.37a.81.81,0,0,0,.21.22l0,.17.11.1V96l.21.37,0,.1.15.25a.6.6,0,0,1,.18.34.6.6,0,0,0,.14.3l.08.18.07.26.21.33,0,.15.1.15.14.44a1.21,1.21,0,0,0,.4.6s.07,0,.11-.09a1.76,1.76,0,0,1,.21-.24l.14-.11.17-.21a.47.47,0,0,0,.14-.14.62.62,0,0,0,.12-.19.85.85,0,0,1,.09-.14.85.85,0,0,0,.09-.14s0,0,0,0a.07.07,0,0,0,.06,0,.62.62,0,0,0,.1-.19l.11-.2.11-.12.08-.2.12-.15.13-.21a2.24,2.24,0,0,0,.3-.33.12.12,0,0,0,.07-.07.39.39,0,0,0,.07-.18,1.35,1.35,0,0,1,.08-.19.12.12,0,0,0,0-.08s0,0,0,0a.37.37,0,0,1,.07-.1.18.18,0,0,0,.06-.1v0l.08-.07,0-.19v-.1l.1-.09.07-.2a.28.28,0,0,0,.1-.17v0l0-.24.07-.12a.81.81,0,0,0,0-.24c.14-.08.2-.14.2-.18l.1,0,.07,0C86.9,94.38,86.94,94.42,87,94.49Z" />
      <path
        d="M94.29,94.07a.23.23,0,0,1-.06.13H94.1l-.08.06-.17-.06-.19,0c-.1,0-.15,0-.17,0a.1.1,0,0,0-.08,0,.47.47,0,0,0-.16.07.28.28,0,0,0-.15,0,.81.81,0,0,0-.24.06,1,1,0,0,1-.23.07l-.17,0H92.3a.09.09,0,0,0-.09.07.4.4,0,0,0-.2-.07.52.52,0,0,0-.34.15l-.13-.07-.1.07-.28-.09-.19.11h-.22l-.3.08a.92.92,0,0,0-.3.12L90,94.55l-.21.17h-.21l-.16.28.06.23c-.08,0-.12.13-.12.31v.35l0,.05-.08.07.05.07a.82.82,0,0,0-.09.33c0,.18.11.26.32.26l.15,0H90l.2,0,.18-.07.19.06.12,0h.12l.18,0,.1,0h0a.51.51,0,0,0,.21-.08.43.43,0,0,0,.25,0l.21,0,.16,0,.26,0s0,0,.07-.07l.37.06h.13l.41,0,.21,0s.06-.07.14-.07l.28,0,.11,0,.15.06.16,0,0,.15a1.15,1.15,0,0,1-.31.08l-.13,0-.18,0-.31.15-.26,0-.16.06-.11,0-.19.11-.13,0h-.48a.28.28,0,0,0-.16.07l-.16,0-.09.08L91.37,97l-.09.09-.23-.11-.16.11-.2,0H90.6a1,1,0,0,0-.25,0l-.14,0-.43,0-.09-.05a1.53,1.53,0,0,1-.37.1l-.09.23.11.62-.06.08.07.19v.22l0,.06a2.9,2.9,0,0,1,.07.35l.1.12-.06.2.13,0,.21.33a1.34,1.34,0,0,0,.79.35l.22,0,.25-.05,0-.06h.27a.79.79,0,0,0,.26-.13c.11,0,.17,0,.19-.05l.13,0a.31.31,0,0,0,.13-.06l.17-.13a.64.64,0,0,1,.18-.19h.16l.3-.27a.56.56,0,0,0,.43-.38l.08,0,0-.19h.16l0-.18h0c.08,0,.13.05.16.14l-.41.53-.14,0a2,2,0,0,1-.29.37l-.3.2-.19.19-.09,0-.14.16-.55.23-.13.17-.2-.06,0,.09H91.3l-.09.08-.32-.07-.4.18-.29-.11-.49-.25a1.21,1.21,0,0,1-.38-.34A3.08,3.08,0,0,1,89,99a5.54,5.54,0,0,1-.17-.55l0-.17L88.77,98l.09-.1-.11-.65-.18-.23a.17.17,0,0,1,0-.12.29.29,0,0,1,.11-.27l.1,0v-.08c0-.05,0-.09.11-.1l0-.17,0-.07v-.34l0-.14.13-.37a2.54,2.54,0,0,1,.1-.32l-.16-.19-.26,0h0a.18.18,0,0,1-.12,0,.16.16,0,0,1,0-.11.47.47,0,0,1,.16-.29.19.19,0,0,0,.08-.07l.24-.08s0,0,.08.06a.11.11,0,0,1,.1-.08c.12,0,.18,0,.18-.11a.2.2,0,0,0,0-.08l.4,0,.07.13a.63.63,0,0,1,.39-.13h.08l.25-.06a.6.6,0,0,0,.24-.08V94a.45.45,0,0,1,.3-.09h.24l1.14-.11.27.11.08-.15q0,.09.09.09l.11,0,.13.08.09-.08.22.09.14,0,.07.06.38,0L94,94C94.18,94,94.28,94,94.29,94.07Z" />
      <path
        d="M102,99.2h.11c.09,0,.14,0,.14.07s-.07.12-.23.12a.21.21,0,0,0-.07,0,.3.3,0,0,1-.16,0l-.42.06H101l-.12.08a.24.24,0,0,1-.14.05l-.2,0-.1.09-.56,0-.32.15c-.17,0-.28.06-.32.13a1.25,1.25,0,0,1-.32,0l-.25.08h-.29l-.26.1h-.63l-.4-.11-.25,0-.1-.09-.23,0-.36-.37a1.41,1.41,0,0,1-.32-.72,2.35,2.35,0,0,0-.15-.45l.1-.41,0-.42.09-.05v-.58l.06-.17a3.18,3.18,0,0,0,.07-.4l.08-.06L96,96.29V95.6a.64.64,0,0,0,.13-.33v-.41l.19-.23-.18-.13.07-.21.14-.07-.07-.2.15-.06,0-.11.08,0,.13,0,.15.34c-.13.1-.19.18-.19.24l0,0s0,0,.07,0,.07,0,.07.06l-.12.39v.44l-.13.4,0,.38-.19.84.06.08,0,.11a2.16,2.16,0,0,0-.06.29,2,2,0,0,0,0,.25l0,.36,0,.13.1.54v0l.19.43v.14l.6.38.47,0v0l.44,0,.45-.08h.34v0l.13-.11.64,0,.15-.1.45,0,.2-.06.76,0,.32-.1.23,0c.09,0,.14,0,.14-.08v0A.25.25,0,0,0,102,99.2Z" />
      <path
        d="M109.89,97l-.11.26,0,.37-.11.1-.12.39a.23.23,0,0,1,0,.11.14.14,0,0,1-.07.06l-.13,0-.71.57-.16.08a1.34,1.34,0,0,0-.24.2v-.07l-.5.38-.21.09-.52.28a.54.54,0,0,0-.22,0,.14.14,0,0,0-.12.06.18.18,0,0,1-.09.07l-.11,0-.19.18-.1-.05,0,.06h-.2l-.11.11-.36,0-.58.1h-.1l-.18,0-.21,0,0,0-.51-.08-.24-.12h-.1v-.23l-.17.06-.09-.12a.52.52,0,0,0-.11-.1l-.19-.08a2.21,2.21,0,0,1-.11-.61l-.05-.09,0-.48.17-.51,0-.25.11-.1-.08-.21.2-.16V97l.07-.16v-.13l.09-.15,0,0,.06,0,.25-.57.47-.75a.28.28,0,0,0,.16-.12.81.81,0,0,1,.25-.24l0-.1h.15l0-.07a.81.81,0,0,1,.36-.22l.09-.1h0a.89.89,0,0,1,.23,0l.55-.07.35,0h.57l.17,0a.3.3,0,0,0,.25-.1.2.2,0,0,0,.14.06l.06,0c0,.08,0,.12.11.12s.12.06.27.08l.08.08.18,0h.23l.33.17h-.08l.22.16a.49.49,0,0,1,.12.16l.18.09.08.14.21.08.4.67s.07.15.14.33l.16.43a.6.6,0,0,1,0,.2Zm-.38-.31-.11-.28v-.08a.59.59,0,0,0,0-.13.72.72,0,0,0-.25-.21l-.09-.23-.07,0,0-.14-.34-.35-.3-.26-.1,0-.43-.28a1,1,0,0,0-.25-.06.83.83,0,0,1-.29-.09h0l-.19,0,0,0-.19-.07-.11.07a.81.81,0,0,0-.22-.06l-.1,0-.11,0a.11.11,0,0,1-.08,0,.49.49,0,0,0-.19.15.83.83,0,0,1-.24.15l-.17,0-.17.11-.19,0-.07,0-.06,0-.08.06-.1.08-.14.1-.16.1a1,1,0,0,0-.16.24l0,.17-.22.1-.15.14a1.17,1.17,0,0,1-.21.33v.14a.26.26,0,0,0-.17.15l-.11.34-.2.13a2.33,2.33,0,0,1-.13.85.9.9,0,0,0-.11.22,1.08,1.08,0,0,0-.05.21,2.91,2.91,0,0,1-.08.32l.07.14,0,.22.11.15a.19.19,0,0,1,0,.09l0,.14a1.21,1.21,0,0,0,.57.36,1.37,1.37,0,0,0,.39.09l.39-.1.08.09h.19V100h.19l.05-.14.19,0,.48.06c.05-.08.09-.12.15-.12l0,0a.76.76,0,0,1,.38-.17h0l.24-.16.25,0,.15-.14a1.34,1.34,0,0,0,.5,0l.12-.1a.45.45,0,0,1,.23-.1l.08-.23,0,0,0-.09a.44.44,0,0,0,.23-.15l.11,0,.06-.12.19-.14L109,98l.2-.07.09-.21.16-.11,0-.21.08-.19,0-.35Z" />
      <path
        d="M116.9,96l-.07.15a.72.72,0,0,1-.11.15l-.18.18v.08a.38.38,0,0,0-.21.13c0,.07-.09.1-.13.1a.73.73,0,0,1-.52.29.47.47,0,0,1-.42.21h-.07v.07H115l-.14.11h-.13a.08.08,0,0,1-.09.09l-.11.09h-.27l-.17.15-.49.1-.06,0-.28,0s0,.09-.1.2a.81.81,0,0,0-.35-.06l-.11.06-.17.06a1.23,1.23,0,0,1-.26.12l-.08.23.13.22-.07.29.09.33-.07,0,.09.14v.24l0,.12v.22l.28,0a.18.18,0,0,1,.06.13c0,.12-.09.18-.26.18h-.07l-.19.07-.16-.29-.22-.47v-.5l-.12-.24.08-.09-.05-.24,0-.17-.08-.11-.49-.08-.13-.19.6,0-.06,0,.07,0a.13.13,0,0,1,.08,0v-.27l.08-.14,0-.73.07-.08,0-.55.05-.3,0-.67.08-.18.09-.07,0-.17c0-.08,0-.13.14-.13.27,0,.41.1.41.28a.69.69,0,0,1-.1.27.72.72,0,0,0-.09.28.74.74,0,0,0,.13.33l-.11.1v.33l-.16.14,0,.25-.09.28,0,.26,0,.21,0,.16-.09.13c0,.13.07.2.17.22l.3-.18h.25a.57.57,0,0,1,.41-.16l.09-.08a.37.37,0,0,0,.17,0,.77.77,0,0,0,.48-.2l.19,0,.15-.13h.16l0-.06.63-.18c.11,0,.17,0,.17-.08a.24.24,0,0,0,.06-.11h.13q.16,0,.21-.21c.12,0,.19,0,.2-.08a.14.14,0,0,1,.1-.08l.07.06,0-.18.09-.07.05-.27a1.84,1.84,0,0,0-.26-.48l-.13,0-.21-.2-.44-.18a1.75,1.75,0,0,0-.92-.37v.09l-.2-.14h-.28l-.16-.11h-.2l-.17-.1h-.17a.23.23,0,0,1-.19-.09l-.47-.07-.37.14-.27-.17-.17.1-.13-.09-.25.08v0h-.11l-.24.13-.16,0a.85.85,0,0,0-.24.12,1,1,0,0,1-.19-.44l.12-.17V94s.09-.06.22-.07a.8.8,0,0,0,.32-.09l.17,0a.16.16,0,0,0,.11,0l.1,0,.13,0a.11.11,0,0,1,.1.08h.93l.4.07s0,0,.1.07.07,0,.07,0l.09-.08h0c.08,0,.12,0,.12,0s0,0,0,0h.17a2.34,2.34,0,0,0,.54.11l0,.07h.33l.21.15a1.11,1.11,0,0,0,.25,0l.06.1h.06a.44.44,0,0,1,.43.24l.16-.09v.15a1,1,0,0,1,.3.18h.14l.11.17.38.25v.13Z" />
      <path
        d="M126.59,100.43s-.08,0-.18.08l-.25-.17-.33-.4-.09-.24a1.84,1.84,0,0,0-.1-.39,1.07,1.07,0,0,1-.13-.65.23.23,0,0,1,0-.13,3.13,3.13,0,0,0,.06-.39l-.13-.25,0-.12,0-.23,0-.27-.09-.08.07-.18-.07-.11.07-.11-.08-.25v-.38l-.1-.23c0-.1,0-.19,0-.26s-.08-.16-.23-.25l-.15.18-.13.07-.41.56-.35.42-.12.25-.34.39-.45.34,0,.19-.24.09,0,.17-.28.13-.09.23-.2.07L122,99c-.11,0-.18.1-.2.3h-.08a1.84,1.84,0,0,0-.19-.31l0-.16-.08-.1.08-.11-.07-.08a1.53,1.53,0,0,1-.1-.26l-.16-.15s-.07-.06-.13-.14l-.12-.18a.88.88,0,0,1-.1-.28l-.13-.16-.23-.45-.24-.28-.08-.17-.23-.25-.24-.37c-.14-.21-.25-.31-.32-.31a.41.41,0,0,0-.16,0l-.08,0h0v.15a1.31,1.31,0,0,1-.11.6l-.25.47.06.3-.08.21-.24.81-.1.26,0,.18-.15.39-.19.33,0,.26-.21.5a.18.18,0,0,0,.12.16c-.16.19-.26.28-.31.28s-.06,0-.1-.09a.38.38,0,0,1-.06-.22.8.8,0,0,1,0-.15,1.54,1.54,0,0,0,.09-.3.45.45,0,0,1,.1-.25l.07-.09v-.29a.39.39,0,0,1,.24-.37v-.19l.07-.28a.15.15,0,0,1,0-.07,1,1,0,0,1,.06-.24.37.37,0,0,0,.08-.22v-.26l.11-.19.21-.73-.05-.32.1-.08,0-.15V95.5a3,3,0,0,0,.06-.46,1.17,1.17,0,0,0-.16-.44l.1-.2,0-.09s0,0,0-.11.19,0,.23-.08H119l.14.11v.1l.13.09,0,.28.11.09,0,.17h0a.31.31,0,0,0,0,.08c0,.07.07.11.19.13a.44.44,0,0,1,.17.12l0,.16.14.14.08.28.54.58.1.32.18.15.16.47.41.73a1.91,1.91,0,0,0,.31.38l0-.16H122l.14-.3.25-.17a1.14,1.14,0,0,1,.22-.24v-.1a2.26,2.26,0,0,1,.26-.16c.1,0,.14-.08.14-.09s0,0,0,0a.34.34,0,0,1,.07-.19h.12l.11-.15s0,.06.06.06,0,0,0,0,0-.08,0-.22c.17-.23.33-.35.46-.35v-.15q0-.12.21-.18l.07,0,0-.07.25-.4,0-.08h.08a1.28,1.28,0,0,0,.26-.44.28.28,0,0,1,.18-.06.06.06,0,0,1,.06,0l.08-.17,0-.37-.07-.17a1.17,1.17,0,0,0,.17-.38.56.56,0,0,1,.18.05.24.24,0,0,0,.16.06l0,.19a1.69,1.69,0,0,1,.21.19s0,0,0,.08V95l.07.1-.07.07.07,0,0,.13,0,.06,0,.25.06,0-.12.17.06,0,0,.25.09.22,0,.27.11.44a3.29,3.29,0,0,1,.06.36.59.59,0,0,1-.14.21l.07.15s0,0,0,.06a.31.31,0,0,1,0,.11l-.06.15.1.09,0,.66.12.41v.48l.09.09a.92.92,0,0,0,.11.24l.19.21A.51.51,0,0,1,126.59,100.43Z" />
      <path
        d="M134,94.07a.23.23,0,0,1-.06.13h-.13l-.08.06-.17-.06-.19,0c-.1,0-.15,0-.17,0a.1.1,0,0,0-.08,0,.47.47,0,0,0-.16.07.28.28,0,0,0-.15,0,.81.81,0,0,0-.24.06,1,1,0,0,1-.23.07l-.17,0h-.16a.09.09,0,0,0-.09.07.4.4,0,0,0-.2-.07.52.52,0,0,0-.34.15l-.13-.07-.1.07-.28-.09-.19.11h-.22l-.3.08a.92.92,0,0,0-.3.12l-.11-.08-.21.17h-.21l-.16.28.06.23c-.08,0-.12.13-.12.31v.35l0,.05-.08.07.05.07a.82.82,0,0,0-.09.33c0,.18.11.26.32.26l.15,0h.2l.2,0,.18-.07.19.06.12,0h.12l.18,0,.1,0h0a.51.51,0,0,0,.21-.08.43.43,0,0,0,.25,0l.21,0,.16,0,.26,0s.05,0,.07-.07l.37.06h.13l.41,0,.21,0s.06-.07.14-.07l.28,0,.11,0,.15.06.16,0,0,.15a1.15,1.15,0,0,1-.31.08l-.13,0-.18,0-.31.15-.26,0-.16.06-.11,0-.19.11-.13,0h-.48a.28.28,0,0,0-.16.07l-.16,0-.09.08-.15-.05-.09.09-.23-.11-.16.11-.2,0h-.09a1,1,0,0,0-.25,0l-.14,0-.43,0-.09-.05a1.53,1.53,0,0,1-.37.1l-.09.23.11.62-.06.08.07.19v.22l0,.06a2.9,2.9,0,0,1,.07.35l.1.12-.06.2.13,0,.21.33a1.34,1.34,0,0,0,.79.35l.22,0,.25-.05,0-.06h.27a.79.79,0,0,0,.26-.13c.11,0,.17,0,.19-.05l.13,0a.31.31,0,0,0,.13-.06l.17-.13a.64.64,0,0,1,.18-.19h.16l.3-.27a.56.56,0,0,0,.43-.38l.08,0,0-.19h.16l0-.18h0c.08,0,.13.05.16.14l-.41.53-.14,0a2,2,0,0,1-.29.37l-.3.2-.19.19-.09,0-.14.16-.55.23-.13.17-.2-.06,0,.09h-.06l-.09.08-.32-.07-.4.18-.29-.11-.49-.25a1.21,1.21,0,0,1-.38-.34,3.08,3.08,0,0,1-.34-.74,5.54,5.54,0,0,1-.17-.55l0-.17-.09-.23.09-.1-.11-.65-.18-.23a.17.17,0,0,1,0-.12.29.29,0,0,1,.11-.27l.1,0v-.08c0-.05,0-.09.11-.1l0-.17,0-.07v-.34l0-.14.13-.37a2.54,2.54,0,0,1,.1-.32l-.16-.19-.26,0h0a.18.18,0,0,1-.12,0,.16.16,0,0,1-.05-.11.47.47,0,0,1,.16-.29.19.19,0,0,0,.08-.07l.24-.08s.05,0,.08.06a.11.11,0,0,1,.1-.08c.12,0,.18,0,.18-.11a.2.2,0,0,0,0-.08l.4,0,.07.13a.63.63,0,0,1,.39-.13h.08l.25-.06a.6.6,0,0,0,.24-.08V94a.45.45,0,0,1,.3-.09H131l1.14-.11.27.11.08-.15q0,.09.09.09l.11,0,.13.08.09-.08.22.09.14,0,.07.06.38,0,.06,0C133.93,94,134,94,134,94.07Z" />
      <path
        d="M142.51,95.18l-.15.24,0,.18.05,0a.75.75,0,0,1-.08.28l-.07.15v.62l-.12.27,0,.18-.1.55,0,.14-.09.43,0,.19-.09.31.09.3-.19.3,0,.17-.11.21.06.11,0,.57.08.18a.43.43,0,0,0-.13.14l-.11,0-.06-.59-.08,0a1.8,1.8,0,0,1,0-.22,1.48,1.48,0,0,0,0-.21v-.24a.47.47,0,0,0,0-.19l-.08-.15-.23,0-.12-.16-.06.08-.11-.13-.2,0-.23-.18-.13,0-.24-.05-.14-.14-.08,0L139.2,98l-.08-.1-.25-.12-.16-.19-.14-.08-.19-.19-.54-.24-.39-.49h-.16l-.09-.14a1,1,0,0,1-.38-.32h.06a.88.88,0,0,1-.2-.28l-.08,0h0c-.09,0-.14,0-.17.08a2.08,2.08,0,0,0-.08.35l-.11.61.11.37-.17.62c0,.24.07.38.07.4v0a.32.32,0,0,1-.08.23.33.33,0,0,0-.08.13s.06,0,.16.09l-.07.25v.3l-.06.32.06.13-.06.09a1.16,1.16,0,0,1-.16.56h-.08c-.1,0-.15-.07-.15-.22v0l.15-.47-.06-.19.08-.26-.08-.09.09-.19-.13-.18a1.2,1.2,0,0,0,0-.23,1.68,1.68,0,0,0,0-.27l.05,0,.05-.12-.1-.18.1-.28-.06-.36.08-.38-.07-.27.08-.57v-.44l.06-.42-.06-.12V94.6l.14,0a.39.39,0,0,1-.16-.27.16.16,0,0,1,.07-.13l.22,0,.06-.08a.26.26,0,0,1,.11.19.38.38,0,0,1-.07.17h.17l0,.27.14.13,0,.17.19.13.06.24a.36.36,0,0,0,.13.21l.39.29v0a.35.35,0,0,0,.13.22l.27.19.3.35.94.78h.1a.47.47,0,0,1,.17.19c0,.06,0,.09.06.1l.38.12.31.25.17.06.34.19.33.1a.8.8,0,0,0,.5.3l.18-.05h0l0-.34.17-.36-.09-.08,0-.56.13-.21v-.13a1.24,1.24,0,0,0-.12-.24l.13-.47-.06-.44.12-.86-.14-.15.16-.49-.05-.07.08-.1,0-.08.19-.09,0,.09.17,0a1,1,0,0,0,0,.22.37.37,0,0,0,.06.21.42.42,0,0,1,.05.12l-.08.23Z" />
      <path
        d="M151.33,94.43l-.06.13-.15,0h-.36l-.17,0-.14,0-.75.07-.25-.07a1.28,1.28,0,0,1-.44.13h-.36l-.22-.08s0,.06-.09.08a1.17,1.17,0,0,0-.32,0,.77.77,0,0,1-.29,0l-.24-.09-.2.09,0,.08h-.11l-.06.11,0,.78,0,.11,0,.13v.35l0,.35v.11a.16.16,0,0,1,0,.11.44.44,0,0,0-.05.19l.09.15,0,.2-.08.06a.38.38,0,0,0,.07.18l-.07.11V98l-.1.14.06.34,0,.49-.09.31a.41.41,0,0,1,0,.07.12.12,0,0,1,0,.08.14.14,0,0,0,0,.09.2.2,0,0,1,0,.07.46.46,0,0,1-.06.16c0,.08,0,.13,0,.15s0,.07,0,.19a.69.69,0,0,0-.06.24,1.85,1.85,0,0,0,0,.26l-.13,0-.07,0c-.06,0-.09-.11-.09-.34l0-.18a1.68,1.68,0,0,0,0-.29,1.69,1.69,0,0,1,0-.28l.07-.84a.68.68,0,0,1-.1-.18.14.14,0,0,1,.06-.11.19.19,0,0,1,0-.1s0,0,.07-.07a.5.5,0,0,1,0-.16.45.45,0,0,1,0-.17.63.63,0,0,0,0-.13v-.19a1.54,1.54,0,0,1,.11-.27c-.07,0-.1,0-.1-.15s0-.29.07-.32v-.49l-.07-.24.07-.5-.07-.36.07-.28c0-.11-.09-.16-.16-.16a.18.18,0,0,0-.12,0l-.16,0a.44.44,0,0,0-.19.07l-.15,0-.14,0v0h-.1a.61.61,0,0,1-.32-.08l0,.08L145,94.8l-.69,0-.28.08c-.21-.18-.31-.3-.31-.36s0-.08,0-.19h.19l.85.17.2-.07.57,0,.52,0,.36-.14h.09l.1-.27.16.05,0,.12.08,0a.65.65,0,0,0,.27.21l.19-.07a.47.47,0,0,1,.34.16l.07-.09.44-.09.28,0a.49.49,0,0,0,.22.06h.05a.54.54,0,0,1,.19,0l.17,0a.08.08,0,0,0,.07,0l.24,0,.27.06a.15.15,0,0,0,.17,0l.14,0,.22,0,.6,0,.26.05Z" />
      <path class="cls-4"
        d="M190.06,40.13c.11,2.7-1.35,4.65-3.64,6.21q-16.84,11.42-33.66,22.89c-1.72,1.17-3.42,2.38-5.15,3.53-1.06.71-2.34,1.51-3.3.15-1.11-1.55.29-2.39,1.4-3.15l32.41-22.07q3.09-2.1,6.17-4.25c3.08-2.14,3.05-4.75-.11-6.92Q168.72,25.94,153.24,15.4q-3.92-2.67-7.81-5.38c-1-.69-2-1.56-1.09-2.84s2.06-.64,3.09.05q19.71,13.43,39.43,26.84A6.74,6.74,0,0,1,190.06,40.13Z" />
      <path class="cls-5"
        d="M0,40.31c-.11-2.7,1.34-4.65,3.64-6.21Q20.51,22.7,37.32,11.23C39,10.06,40.74,8.85,42.47,7.7c1.06-.71,2.34-1.5,3.31-.14,1.1,1.55-.3,2.39-1.41,3.14Q28.17,21.74,12,32.75C9.89,34.16,7.83,35.57,5.78,37c-3.08,2.14-3.06,4.75.1,6.92Q21.33,54.5,36.81,65.06q3.91,2.68,7.81,5.39c1,.69,2,1.56,1.08,2.84s-2.06.64-3.08-.06Q22.91,59.81,3.2,46.37A6.75,6.75,0,0,1,0,40.31Z" />
    </g>
  </g>
</svg>