<svg xmlns="http://www.w3.org/2000/svg" xmlns:xlink="http://www.w3.org/1999/xlink" viewBox="0 0 271.77 287.19">
    <defs>
        <style>
            .cls-1 {
                isolation: isolate;
            }

            .cls-2,
            .cls-25,
            .cls-31,
            .cls-36 {
                opacity: 0.2;
            }

            .cls-3 {
                opacity: 0;
            }

            .cls-4 {
                opacity: 0.09;
            }

            .cls-5 {
                opacity: 0.18;
            }

            .cls-6 {
                opacity: 0.27;
            }

            .cls-7 {
                opacity: 0.36;
            }

            .cls-8 {
                opacity: 0.45;
            }

            .cls-9 {
                opacity: 0.55;
            }

            .cls-10 {
                opacity: 0.64;
            }

            .cls-11 {
                opacity: 0.73;
            }

            .cls-12 {
                opacity: 0.82;
            }

            .cls-13 {
                opacity: 0.91;
            }

            .cls-14 {
                fill: url(#linear-gradient);
            }

            .cls-15,
            .cls-23,
            .cls-28,
            .cls-30,
            .cls-34,
            .cls-35,
            .cls-39 {
                mix-blend-mode: color-dodge;
            }

            .cls-15 {
                fill: url(#radial-gradient);
            }

            .cls-16 {
                opacity: 0.6;
                fill: url(#radial-gradient-2);
            }

            .cls-16,
            .cls-25,
            .cls-31,
            .cls-36 {
                mix-blend-mode: screen;
            }

            .cls-17 {
                fill: url(#linear-gradient-2);
            }

            .cls-18 {
                fill: url(#linear-gradient-3);
            }

            .cls-19 {
                fill: url(#linear-gradient-4);
            }

            .cls-20 {
                fill: url(#linear-gradient-5);
            }

            .cls-21 {
                fill: url(#linear-gradient-6);
            }

            .cls-22 {
                fill: url(#linear-gradient-7);
            }

            .cls-23 {
                fill: url(#radial-gradient-3);
            }

            .cls-24 {
                fill: #bcbec0;
                mix-blend-mode: multiply;
            }

            .cls-25 {
                fill: url(#linear-gradient-8);
            }

            .cls-26 {
                fill: url(#linear-gradient-9);
            }

            .cls-27 {
                fill: url(#New_Gradient_Swatch_copy_8);
            }

            .cls-28 {
                fill: url(#radial-gradient-4);
            }

            .cls-29 {
                fill: #fff;
            }

            .cls-30 {
                fill: url(#radial-gradient-5);
            }

            .cls-31 {
                stroke: #000;
                stroke-miterlimit: 10;
                fill: url(#linear-gradient-10);
            }

            .cls-32 {
                fill: url(#linear-gradient-11);
            }

            .cls-33 {
                fill: url(#New_Gradient_Swatch_copy_9);
            }

            .cls-34 {
                fill: url(#radial-gradient-6);
            }

            .cls-35 {
                fill: url(#radial-gradient-7);
            }

            .cls-36 {
                fill: url(#linear-gradient-12);
            }

            .cls-37 {
                fill: url(#linear-gradient-13);
            }

            .cls-38 {
                fill: url(#linear-gradient-14);
            }

            .cls-39 {
                fill: url(#radial-gradient-8);
            }
        </style>
        <linearGradient id="linear-gradient" x1="4073.05" y1="-66.58" x2="4172.44" y2="105.57" gradientTransform="matrix(1.09, 0.02, -0.37, 0.91, -4321.84, -17.14)" gradientUnits="userSpaceOnUse">
            <stop offset="0.06" stop-color="#200041" />
            <stop offset="0.26" stop-color="#210243" />
            <stop offset="0.36" stop-color="#25084b" />
            <stop offset="0.43" stop-color="#2c1358" />
            <stop offset="0.47" stop-color="#311b61" />
            <stop offset="0.48" stop-color="#351f65" />
            <stop offset="0.5" stop-color="#422c73" />
            <stop offset="0.51" stop-color="#584188" />
            <stop offset="0.52" stop-color="#765fa7" />
            <stop offset="0.53" stop-color="#8770b8" />
            <stop offset="0.54" stop-color="#7e67ae" />
            <stop offset="0.56" stop-color="#5c468d" />
            <stop offset="0.59" stop-color="#442e75" />
            <stop offset="0.61" stop-color="#362066" />
            <stop offset="0.63" stop-color="#311b61" />
            <stop offset="0.67" stop-color="#2a1155" />
            <stop offset="0.75" stop-color="#230446" />
            <stop offset="0.81" stop-color="#200041" />
            <stop offset="1" stop-color="#200041" />
        </linearGradient>
        <radialGradient id="radial-gradient" cx="4227.51" cy="3.36" r="186.51" gradientTransform="matrix(1.09, 0.02, -0.37, 0.91, -4321.84, -17.14)" gradientUnits="userSpaceOnUse">
            <stop offset="0" stop-color="#711f56" />
            <stop offset="0.16" stop-color="#6c1e52" />
            <stop offset="0.36" stop-color="#5c1946" />
            <stop offset="0.58" stop-color="#431233" />
            <stop offset="0.82" stop-color="#200918" />
            <stop offset="1" />
        </radialGradient>
        <radialGradient id="radial-gradient-2" cx="4196.31" cy="-9.97" r="109.88" gradientTransform="matrix(1.09, 0.02, -0.37, 0.91, -4321.84, -17.14)" gradientUnits="userSpaceOnUse">
            <stop offset="0" stop-color="#af8afc" />
            <stop offset="1" stop-color="#10054d" />
        </radialGradient>
        <linearGradient id="linear-gradient-2" x1="4205.16" y1="92.17" x2="3901.41" y2="-2.92" gradientTransform="matrix(1.09, 0.02, -0.37, 0.91, -4321.84, -17.14)" gradientUnits="userSpaceOnUse">
            <stop offset="0.19" stop-color="#3d065f" />
            <stop offset="0.93" stop-color="#3d065f" />
        </linearGradient>
        <linearGradient id="linear-gradient-3" x1="4096.05" y1="73.18" x2="4192.94" y2="73.18" gradientTransform="matrix(1.09, 0.02, -0.37, 0.91, -4321.84, -17.14)" gradientUnits="userSpaceOnUse">
            <stop offset="0" stop-color="#311b61" />
            <stop offset="0.2" stop-color="#290f52" />
            <stop offset="0.49" stop-color="#200041" />
            <stop offset="1" stop-color="#0f001f" />
        </linearGradient>
        <linearGradient id="linear-gradient-4" x1="4209.12" y1="209.73" x2="4054.86" y2="-116.22" xlink:href="#linear-gradient-3" />
        <linearGradient id="linear-gradient-5" x1="1884.64" y1="4975.28" x2="1901.97" y2="4975.28" gradientTransform="matrix(-1.08, 1.3, -1.13, 0.43, 7908.61, -4503.66)" xlink:href="#linear-gradient-3" />
        <linearGradient id="linear-gradient-6" x1="4206.96" y1="41.67" x2="4195.01" y2="41.15" gradientTransform="matrix(1.09, 0.02, -0.37, 0.91, -4321.84, -17.14)" gradientUnits="userSpaceOnUse">
            <stop offset="0" stop-color="#3d065f" />
            <stop offset="1" stop-color="#5f27bd" />
        </linearGradient>
        <linearGradient id="linear-gradient-7" x1="4085.11" y1="-40.06" x2="4232.5" y2="240.99" gradientTransform="matrix(1.09, 0.02, -0.37, 0.91, -4321.84, -17.14)" gradientUnits="userSpaceOnUse">
            <stop offset="0.01" stop-color="#9f19ab" />
            <stop offset="0.43" stop-color="#5f27bd" />
            <stop offset="0.9" stop-color="#3d065f" />
        </linearGradient>
        <radialGradient id="radial-gradient-3" cx="4200.95" cy="36.57" r="7.02" xlink:href="#radial-gradient" />
        <linearGradient id="linear-gradient-8" x1="4315.42" y1="168.53" x2="4346.65" y2="132.09" gradientTransform="translate(-4253.8)" gradientUnits="userSpaceOnUse">
            <stop offset="0" stop-color="#fdd65b" />
            <stop offset="0.01" stop-color="#f7d159" />
            <stop offset="0.13" stop-color="#bea144" />
            <stop offset="0.25" stop-color="#8b7632" />
            <stop offset="0.37" stop-color="#605223" />
            <stop offset="0.49" stop-color="#3e3416" />
            <stop offset="0.62" stop-color="#231d0c" />
            <stop offset="0.74" stop-color="#0f0d05" />
            <stop offset="0.87" stop-color="#040301" />
            <stop offset="1" />
        </linearGradient>
        <linearGradient id="linear-gradient-9" x1="4279.2" y1="98.27" x2="4368.2" y2="207.33" gradientTransform="translate(-4253.8)" gradientUnits="userSpaceOnUse">
            <stop offset="0.34" stop-color="#fbcd9c" />
            <stop offset="0.81" stop-color="#feeca8" />
            <stop offset="0.91" stop-color="#ffa98c" />
        </linearGradient>
        <linearGradient id="New_Gradient_Swatch_copy_8" x1="5766.93" y1="-1769.85" x2="6230.35" y2="-1873.74" gradientTransform="matrix(0.87, 0.5, 0.5, 1.44, -4213.9, -212.32)" gradientUnits="userSpaceOnUse">
            <stop offset="0.04" stop-color="#ffa98c" />
            <stop offset="0.32" stop-color="#ffb892" />
            <stop offset="0.86" stop-color="#fee1a3" />
            <stop offset="1" stop-color="#feeca8" />
        </linearGradient>
        <radialGradient id="radial-gradient-4" cx="4389.3" cy="151.91" r="53.09" gradientTransform="translate(-4253.8)" gradientUnits="userSpaceOnUse">
            <stop offset="0" stop-color="#fff" />
            <stop offset="1" />
        </radialGradient>
        <radialGradient id="radial-gradient-5" cx="6863.69" cy="801.02" r="12.5" gradientTransform="matrix(0.35, -0.14, 0.25, 0.61, -2477.13, 658.42)" gradientUnits="userSpaceOnUse">
            <stop offset="0" stop-color="#c211a1" />
            <stop offset="0.01" stop-color="#bd119d" />
            <stop offset="0.15" stop-color="#8b0c73" />
            <stop offset="0.29" stop-color="#600850" />
            <stop offset="0.42" stop-color="#3e0533" />
            <stop offset="0.56" stop-color="#23031d" />
            <stop offset="0.7" stop-color="#0f010d" />
            <stop offset="0.85" stop-color="#040003" />
            <stop offset="1" />
        </radialGradient>
        <linearGradient id="linear-gradient-10" x1="4396.57" y1="71.72" x2="4426.48" y2="36.82" gradientTransform="translate(-4253.8)" xlink:href="#radial-gradient-5" />
        <linearGradient id="linear-gradient-11" x1="4361.79" y1="2.1" x2="4450.32" y2="110.59" gradientTransform="translate(-4253.8)" gradientUnits="userSpaceOnUse">
            <stop offset="0.17" stop-color="#dc48c1" />
            <stop offset="0.43" stop-color="#df4ac2" />
            <stop offset="0.6" stop-color="#e851c5" />
            <stop offset="0.75" stop-color="#f75dcb" />
            <stop offset="0.81" stop-color="#ff63ce" />
            <stop offset="0.91" stop-color="#9f19ab" />
        </linearGradient>
        <linearGradient id="New_Gradient_Swatch_copy_9" x1="5935.5" y1="-1894.89" x2="6395.91" y2="-1998.1" gradientTransform="matrix(0.87, 0.5, 0.5, 1.44, -4213.9, -212.32)" gradientUnits="userSpaceOnUse">
            <stop offset="0.04" stop-color="#9f19ab" />
            <stop offset="0.24" stop-color="#ae25b1" />
            <stop offset="0.65" stop-color="#d744bf" />
            <stop offset="1" stop-color="#ff63ce" />
        </linearGradient>
        <radialGradient id="radial-gradient-6" cx="4471.17" cy="55.46" r="52.89" xlink:href="#radial-gradient-4" />
        <radialGradient id="radial-gradient-7" cx="7161.95" cy="713.29" r="12.5" xlink:href="#radial-gradient-5" />
        <linearGradient id="linear-gradient-12" x1="4314.09" y1="94.34" x2="4343.39" y2="60.16" gradientTransform="translate(-4253.8)" gradientUnits="userSpaceOnUse">
            <stop offset="0" stop-color="#43e8e1" />
            <stop offset="0.09" stop-color="#36bdb7" />
            <stop offset="0.22" stop-color="#288b87" />
            <stop offset="0.34" stop-color="#1c605d" />
            <stop offset="0.47" stop-color="#123e3c" />
            <stop offset="0.6" stop-color="#0a2321" />
            <stop offset="0.73" stop-color="#040f0f" />
            <stop offset="0.86" stop-color="#010404" />
            <stop offset="1" />
        </linearGradient>
        <linearGradient id="linear-gradient-13" x1="4266.19" y1="17.46" x2="4381.16" y2="147.13" gradientTransform="translate(-4253.8)" gradientUnits="userSpaceOnUse">
            <stop offset="0" stop-color="#4ec1de" />
            <stop offset="0.24" stop-color="#4dc4de" />
            <stop offset="0.45" stop-color="#49cfde" />
            <stop offset="0.64" stop-color="#43e1de" />
            <stop offset="0.65" stop-color="#43e2de" />
            <stop offset="0.77" stop-color="#3dabc8" />
            <stop offset="0.84" stop-color="#3a91bd" />
            <stop offset="0.88" stop-color="#3b96bf" />
            <stop offset="1" stop-color="#3ca0c3" />
        </linearGradient>
        <linearGradient id="linear-gradient-14" x1="4704.4" y1="-1832.28" x2="5144.9" y2="-1931.03" gradientTransform="matrix(0.87, 0.5, 0, 1.15, -4200.29, -204.67)" gradientUnits="userSpaceOnUse">
            <stop offset="0.04" stop-color="#138bbd" />
            <stop offset="0.23" stop-color="#169ac7" />
            <stop offset="0.59" stop-color="#1fc3df" />
            <stop offset="1" stop-color="#2af6ff" />
        </linearGradient>
        <radialGradient id="radial-gradient-8" cx="4383.71" cy="67.54" r="63.23" xlink:href="#radial-gradient-4" />
    </defs>
    <g class="cls-1">
        <g id="Capa_2" data-name="Capa 2">
            <g id="Layer_3" data-name="Layer 3">
                <g class="cls-2">
                    <path class="cls-3" d="M182,287.19a15.61,15.61,0,0,1-7.8-1.88l-47.36-26.95-47.37-27A8.28,8.28,0,0,1,75,224.28c0-3.17,2-6.12,5.39-8.1l31-17.44a19.25,19.25,0,0,1,9.47-2.4,15.63,15.63,0,0,1,7.8,1.88L176,225.17l47.37,27a8.25,8.25,0,0,1,4.47,7.13c0,3.17-2,6.12-5.39,8.09l-31,17.44A19.25,19.25,0,0,1,182,287.19Z" />
                    <path class="cls-4" d="M81.21,216.85l8.41-4.69c.34-.2,16.11-8.8,16.41-8.63l5.42-2.65c2.44-1.41,6-1.88,9.14-1.88a16,16,0,0,1,7.53,2L166,222.56l8.09,4.61,46,26.2a9.87,9.87,0,0,1,3.57,3.48,7.38,7.38,0,0,1,.94,3.32c.09,3-1.78,5.93-5.15,7.87l-8.4,4.69c-.34.2-16.12,8.8-16.41,8.63L189.27,284c-2.45,1.41-6,1.88-9.15,1.88a16,16,0,0,1-7.53-2l-37.92-21.6-8.09-4.6-46-26.21A9.87,9.87,0,0,1,77,228a7.34,7.34,0,0,1-.94-3.32C76,221.68,77.84,218.79,81.21,216.85Z" />
                    <path class="cls-5" d="M82.05,217.52,90.23,213c.68-.4,15.45-8.17,16-7.82l5.26-2.17c2.2-1.27,6-1.35,8.82-1.35a16.51,16.51,0,0,1,7.25,2l36.81,21,7.85,4.47,44.66,25.47a10.5,10.5,0,0,1,3.52,3.31,7,7,0,0,1,1,3.16c.18,2.91-1.59,5.73-4.9,7.64l-8.18,4.52c-.69.39-15.45,8.16-16,7.82l-5.26,2.17c-2.2,1.27-6,1.35-8.82,1.35a16.68,16.68,0,0,1-7.26-2l-36.81-21-7.85-4.48L81.7,231.63a10.64,10.64,0,0,1-3.53-3.31,7.24,7.24,0,0,1-1-3.16C77,222.24,78.74,219.43,82.05,217.52Z" />
                    <path class="cls-6" d="M82.89,218.18l8-4.35c1-.59,14.78-7.52,15.67-7l5.1-1.68c2-1.13,6-.83,8.49-.83a17.47,17.47,0,0,1,7,2.13l35.69,20.37,7.62,4.35,43.3,24.72a11.65,11.65,0,0,1,3.48,3.14,7,7,0,0,1,1.11,3c.27,2.79-1.41,5.54-4.66,7.42l-7.95,4.35c-1,.59-14.78,7.52-15.67,7l-5.1,1.68c-2,1.13-6,.83-8.49.83a17.26,17.26,0,0,1-7-2.13l-35.7-20.37-7.61-4.35-43.3-24.71a11.69,11.69,0,0,1-3.48-3.15,7,7,0,0,1-1.12-3C78,222.81,79.64,220.06,82.89,218.18Z" />
                    <path class="cls-7" d="M83.73,218.85l7.72-4.18c1.37-.79,14.12-6.89,15.31-6.2l4.93-1.2c1.71-1,6-.3,8.17-.3,1.89,0,5.36,1.43,6.72,2.21l34.58,19.76,7.37,4.21,41.95,24a13.32,13.32,0,0,1,3.43,3,7.15,7.15,0,0,1,1.21,2.84c.35,2.67-1.23,5.35-4.42,7.19L203,274.32c-1.37.79-14.12,6.88-15.3,6.2l-4.94,1.2c-1.71,1-6,.29-8.17.29-1.89,0-5.36-1.42-6.71-2.21l-34.58-19.75-7.38-4.22-41.95-24a13.32,13.32,0,0,1-3.43-3,7,7,0,0,1-1.2-2.84C79,223.37,80.53,220.69,83.73,218.85Z" />
                    <path class="cls-8" d="M84.56,219.52l7.51-4c1.71-1,13.45-6.24,14.93-5.38l4.78-.72c1.46-.84,6,.23,7.84.23,1.62,0,5.28,1.62,6.44,2.29l33.47,19.15,7.13,4.08,40.61,23.23a15.15,15.15,0,0,1,3.38,2.8,7.28,7.28,0,0,1,1.29,2.68c.44,2.55-1.05,5.16-4.18,7l-7.5,4c-1.71,1-13.45,6.24-14.94,5.39l-4.77.71c-1.47.85-6-.23-7.84-.23-1.62,0-5.29-1.62-6.45-2.29L132.8,259.28l-7.14-4.08L85.06,232a14.92,14.92,0,0,1-3.38-2.8,6.91,6.91,0,0,1-1.29-2.68C79.94,223.94,81.43,221.33,84.56,219.52Z" />
                    <path class="cls-9" d="M85.4,220.19l7.28-3.85c2-1.19,12.79-5.61,14.57-4.58l4.61-.23c1.22-.7,6,.76,7.51.76,1.35,0,5.21,1.82,6.18,2.37L157.9,233.2l6.9,4,39.25,22.48a18.49,18.49,0,0,1,3.33,2.63,7.19,7.19,0,0,1,1.38,2.53c.53,2.42-.86,5-3.94,6.74l-7.27,3.85C195.5,276.56,184.76,281,183,280l-4.61.22c-1.22.71-6-.75-7.52-.75-1.35,0-5.2-1.82-6.17-2.38l-32.35-18.53-6.9-3.95L86.18,232.09a18.17,18.17,0,0,1-3.34-2.64,7.28,7.28,0,0,1-1.37-2.52C80.93,224.5,82.33,222,85.4,220.19Z" />
                    <path class="cls-10" d="M86.24,220.85l7.05-3.67c2.4-1.39,12.12-5,14.2-3.77l4.45.25c1-.56,5.94,1.29,7.19,1.29,1.08,0,5.13,2,5.9,2.46l31.24,17.91,6.66,3.82,37.9,21.74a22.6,22.6,0,0,1,3.29,2.47,7.33,7.33,0,0,1,1.46,2.36c.63,2.3-.68,4.78-3.69,6.52l-7,3.68c-2.4,1.38-12.12,5-14.2,3.76l-4.45-.25c-1,.56-5.95-1.29-7.19-1.29-1.08,0-5.13-2-5.9-2.45l-31.24-17.92-6.66-3.82L87.3,232.2A22.6,22.6,0,0,1,84,229.73a7.22,7.22,0,0,1-1.46-2.36C81.92,225.07,83.23,222.59,86.24,220.85Z" />
                    <path class="cls-11" d="M87.08,221.52,93.9,218c2.74-1.58,11.46-4.33,13.83-3l4.29.74c.74-.42,5.93,1.82,6.86,1.82s5.06,2.2,5.64,2.54l30.12,17.3,6.43,3.69,36.54,21a20.37,20.37,0,0,1,3.24,2.3,4.88,4.88,0,0,1,1.55,2.2c.72,2.18-.49,4.59-3.45,6.3l-6.82,3.51c-2.74,1.58-11.46,4.32-13.83,2.95l-4.29-.74c-.73.42-5.93-1.81-6.86-1.81s-5.06-2.2-5.64-2.54L131.39,257,125,253.31l-36.55-21A21.27,21.27,0,0,1,85.18,230a4.88,4.88,0,0,1-1.55-2.2C82.91,225.64,84.13,223.23,87.08,221.52Z" />
                    <path class="cls-12" d="M87.92,222.19l6.6-3.34c3.08-1.78,10.79-3.69,13.46-2.15l4.13,1.23c.49-.29,5.91,2.34,6.53,2.34a43.72,43.72,0,0,1,5.37,2.62l29,16.69,6.18,3.56,35.19,20.24a31.75,31.75,0,0,1,3.2,2.13,4.75,4.75,0,0,1,1.63,2c.82,2.06-.31,4.4-3.21,6.07L189.42,277c-3.08,1.78-10.79,3.69-13.46,2.15l-4.13-1.23c-.49.29-5.91-2.34-6.54-2.34a43.59,43.59,0,0,1-5.36-2.62l-29-16.69-6.18-3.55-35.2-20.25a31,31,0,0,1-3.19-2.13,4.8,4.8,0,0,1-1.64-2C83.9,226.2,85,223.86,87.92,222.19Z" />
                    <path class="cls-13" d="M88.76,222.85l6.37-3.17c3.42-2,10.13-3.05,13.09-1.34l4,1.72c.24-.14,5.9,2.87,6.21,2.87s4.9,2.59,5.09,2.7l27.9,16.08,5.94,3.42,33.85,19.5c.14.09,3.07,1.83,3.14,2a4.72,4.72,0,0,1,1.73,1.89c.9,1.93-.13,4.2-3,5.84l-6.37,3.17c-3.42,2-10.13,3.05-13.09,1.34l-4-1.71c-.25.14-5.9-2.87-6.21-2.87s-4.9-2.59-5.09-2.7l-27.9-16.08-5.94-3.42L90.66,232.54c-.14-.08-3.07-1.82-3.14-2a4.7,4.7,0,0,1-1.73-1.88C84.88,226.77,85.92,224.49,88.76,222.85Z" />
                    <path d="M171.28,278.55,130,254.71,88.69,230.87c-3.26-1.89-2.86-5.17.91-7.35l6.14-3c3.77-2.18,9.46-2.41,12.72-.53l41.3,23.84,41.29,23.84c3.27,1.89,2.86,5.18-.91,7.35L184,278C180.24,280.2,174.54,280.43,171.28,278.55Z" />
                </g>
                <path class="cls-14" d="M174,272.93l-66.92-41.64c-7.55-4.7-10.26-16.93-6-27.32l74.5-184c2.14-5.28-2.61-6.56,1.32-8.4.15-.06,8.56-2.67,8.72-2.71,3.84-1,7.68-1.42,11.24.8l66.93,41.64C271.29,56,274,68.2,269.79,78.59l-74.5,184c-2.23,5.52-6,9.41-10.12,11.14-.24.1-10.44,3.4-10.69,3.46C171.11,278,177.3,275,174,272.93Z" />
                <path class="cls-15" d="M262.89,51.46,196,9.82c-3.56-2.21,61.82,42.82,61.82,42.82,7.55,4.7,10.26,16.93,6.05,27.32,0,0-71.62,188.38-69.39,182.86l74.5-184C273.14,68.4,270.44,56.16,262.89,51.46Z" />
                <path class="cls-16" d="M166.56,275.25,99.63,233.61c-7.54-4.7-10.25-16.93-6-27.32l74.5-184c4.21-10.39,13.74-15,21.29-10.31l66.92,41.64c7.55,4.69,10.26,16.93,6,27.32l-74.5,184C183.64,275.33,174.11,280,166.56,275.25Z" />
                <path class="cls-17" d="M164.81,275.88,97.89,234.24c-7.55-4.69-10.26-16.93-6-27.32l74.49-184c4.21-10.39,13.74-15,21.29-10.31l66.93,41.64c7.54,4.7,10.25,16.93,6.05,27.32l-74.5,184C181.89,276,172.36,280.58,164.81,275.88Z" />
                <path class="cls-18" d="M96.51,209.38,170.72,26.06c3.08-7.62,10.08-11,15.62-7.57L251.49,59c5.54,3.45,7.52,12.42,4.44,20L181.71,262.4c-3.08,7.63-10.08,11-15.62,7.57L101,229.43C95.41,226,93.42,217,96.51,209.38Z" />
                <path class="cls-19" d="M93.65,208.19,168.24,23.94c3.69-9.11,12-13.16,18.66-9l66.57,41.42c6.62,4.12,9,14.84,5.31,23.95L184.19,264.53c-3.69,9.11-12.05,13.15-18.66,9L99,232.15C92.34,228,90,217.3,93.65,208.19Z" />
                <path class="cls-20" d="M245.59,124.17l5-12.42a8.46,8.46,0,0,1,4.26-4.07h0c1.71-.66,2.58.1,1.93,1.69l-5,12.42a8.46,8.46,0,0,1-4.26,4.07h0C245.81,126.51,245,125.76,245.59,124.17Z" />
                <path class="cls-21" d="M246.58,125.63c-.74,0-.7-.79-.43-1.45l5-12.42a7.76,7.76,0,0,1,3.82-3.67,2.44,2.44,0,0,1,.83-.18c.73,0,.69.79.42,1.44l-5,12.43a7.76,7.76,0,0,1-3.82,3.67A2.39,2.39,0,0,1,246.58,125.63Z" />
                <path class="cls-22" d="M242.36,55.33c-1.55,3.83-5.43,5.31-8.67,3.29L197.24,35.94c-3.24-2-4.61-6.75-3.05-10.59l-7.74-4.81c-5.22-3.25-11.48-.87-14,5.32l-75,185.38c-2.5,6.19-.3,13.84,4.92,17.08L166,267.92c5.22,3.25,11.48.87,14-5.32L255,77.22c2.51-6.18.3-13.83-4.92-17.08Z" />
                <path class="cls-23" d="M246.79,124.52l5-12.43a7.78,7.78,0,0,1,3.81-3.67,2.74,2.74,0,0,1,.74-.17.53.53,0,0,0-.54-.34,2.44,2.44,0,0,0-.83.18,7.72,7.72,0,0,0-3.82,3.67l-5,12.42c-.27.66-.31,1.43.43,1.45h.09A1.56,1.56,0,0,1,246.79,124.52Z" />
                <path class="cls-24" d="M250.09,60.14l-7.73-4.81c-1.55,3.83-5.43,5.31-8.67,3.29L197.23,35.94c-3.23-2-4.6-6.75-3-10.59l-7.74-4.81c-5.22-3.25-11.48-.87-14,5.32l-75,185.38c-2.5,6.19-.3,13.84,4.92,17.08L166,267.92c5.22,3.25,11.48.87,14-5.32L255,77.22C257.52,71,255.31,63.39,250.09,60.14ZM179,262.58a10.2,10.2,0,0,1-3.42,4.53,7.34,7.34,0,0,1-4.48,1.41h0a8.5,8.5,0,0,1-4.26-1.32l-63.64-39.6c-5-3.1-7.1-10.43-4.71-16.34L173.49,25.88c1.51-3.73,4.54-6,7.89-5.94a8.38,8.38,0,0,1,4.26,1.33L193,25.83c-1.38,4.06.07,8.73,3.45,10.83l36.45,22.69a6.65,6.65,0,0,0,3.4,1,7.42,7.42,0,0,0,6.39-3.62l6.62,4.11c5,3.11,7.09,10.43,4.7,16.34Z" />
                <path class="cls-25" d="M139.83,155.23,40.29,97.65a11.55,11.55,0,0,0-11.62,0L17.35,104.3a13.53,13.53,0,0,0-6.61,11.63v18.81a20.87,20.87,0,0,0,10.43,18.08l91.82,53a6.87,6.87,0,0,0,6.93,0l19.91-11.58Z" />
                <path class="cls-26" d="M117.2,203.16,24.43,149.72c-5.06-2.93-9.16-10.76-9.16-17.51V111.62c0-3.42-3.34-3.49-1.64-4.73.14-.1,4.68-2.61,4.83-2.69,1.6-.92,3.69-.82,6,.5l92.77,53.44c5.06,2.92,9.16,10.75,9.16,17.5v20.59c0,3.69-1.23,6.29-3.17,7.41l-4.74,2.69C116.87,207.15,119.4,204.43,117.2,203.16Z" />
                <path class="cls-27" d="M112.62,205.76,19.85,152.32c-5.06-2.92-9.16-10.76-9.16-17.5V114.23c0-6.75,4.1-9.85,9.16-6.93l92.77,53.44c5,2.92,9.16,10.76,9.16,17.5v20.59C121.78,205.58,117.67,208.68,112.62,205.76Z" />
                <path class="cls-28" d="M114.06,159.81,21.29,106.36c-2.57-1.48-4.89-1.4-6.56-.09a6.72,6.72,0,0,1,4.46,1L112,160.74c5.06,2.92,9.17,10.76,9.17,17.51v20.58c0,3.32-1,5.75-2.61,7,2.81-.47,4.71-3.36,4.71-7.95V177.31C123.22,170.56,119.12,162.73,114.06,159.81Z" />
                <polygon class="cls-29" points="51 136.43 51 138.64 110.08 172.44 110.08 170.23 51 136.43" />
                <polygon class="cls-29" points="74.63 168.25 51 154.84 51 157.06 74.63 170.46 74.63 168.25" />
                <polygon class="cls-29" points="87.65 166.56 51 145.63 51 147.85 87.65 168.78 87.65 166.56" />
                <polygon class="cls-29" points="65.92 158.62 51 150.24 51 152.45 65.92 160.83 65.92 158.62" />
                <polygon class="cls-29" points="68.1 159.88 68.1 162.09 98.27 179.44 98.27 177.22 68.1 159.88" />
                <polygon class="cls-29" points="76.81 169.51 76.81 171.72 93.73 181.49 93.73 179.28 76.81 169.51" />
                <polygon class="cls-29" points="89.83 170.04 110.08 181.65 110.08 179.43 89.83 167.82 89.83 170.04" />
                <polygon class="cls-29" points="100.45 180.7 110.08 186.25 110.08 184.04 100.45 178.48 100.45 180.7" />
                <polygon class="cls-29" points="51 143.24 110.08 177.05 110.08 174.83 51 141.03 51 143.24" />
                <polygon class="cls-29" points="95.91 182.75 110.08 190.86 110.08 188.64 95.91 180.54 95.91 182.75" />
                <polygon class="cls-29" points="51 161.66 110.08 195.46 110.08 193.25 51 159.44 51 161.66" />
                <path class="cls-29" d="M40.48,146.75a18.35,18.35,0,0,1-3.78-4.53c-.63-1.05-.61-2.19,0-2.54a4.84,4.84,0,0,0,1.93-2.15c.67.18,1.49-.07,1.49-1a3.58,3.58,0,0,0-1-2.45c-.16-4-1.52-8.05-6.08-10.69s-5.92-.12-6.09,3.66c-.54-.12-.95.42-.95,1.35a4.4,4.4,0,0,0,1.48,2.68,21.61,21.61,0,0,0,1.93,4.38c.61,1.06.63,2.22,0,2.55a5,5,0,0,1-3.79.16c-1.91-.58-3.34.58-3.34,2.94v4.09a2.75,2.75,0,0,0,1.26,2.16l19,11c.69.4,1.25.08,1.25-.72v-4.09A9.71,9.71,0,0,0,40.48,146.75Z" />
                <path class="cls-30" d="M124.75,164.21c1.74,4.23,1.2,8.47-1.21,9.46s-5.77-1.64-7.51-5.88-1.2-8.47,1.21-9.47S123,160,124.75,164.21Z" />
                <path class="cls-31" d="M214.82,56.76,120,1.79a9.59,9.59,0,0,0-9.8.11L100.09,8a13.54,13.54,0,0,0-6.62,11.63V38.46a20.88,20.88,0,0,0,10.44,18.08L195,109.21a6.88,6.88,0,0,0,6.92,0L215,101.32a9.58,9.58,0,0,0,4.66-8.22v-28A9.59,9.59,0,0,0,214.82,56.76Z" />
                <path class="cls-32" d="M199.16,106.52l-92-53.08C102.11,50.51,98,42.68,98,35.93V15.34c0-3.42-3.34-3.49-1.64-4.73.14-.1,4.68-2.61,4.83-2.69,1.6-.92,3.69-.82,6,.5l92,53.08c5.06,2.92,9.16,10.76,9.16,17.5V99.59c0,3.69-1.23,6.29-3.17,7.41l-4.74,2.7C198.83,110.51,201.36,107.79,199.16,106.52Z" />
                <path class="cls-33" d="M194.57,109.12,102.59,56c-5.06-2.92-9.16-10.76-9.16-17.51V18c0-6.75,4.1-9.85,9.16-6.93l92,53.08c5.06,2.92,9.17,10.76,9.17,17.51V102.2C203.74,108.94,199.63,112,194.57,109.12Z" />
                <path class="cls-34" d="M196,63.17,104,10.08c-2.57-1.48-4.89-1.4-6.56-.09a6.72,6.72,0,0,1,4.46,1l92,53.08c5.06,2.92,9.16,10.76,9.16,17.51V102.2c0,3.31-1,5.74-2.6,7,2.81-.47,4.71-3.37,4.71-8V80.67C205.18,73.93,201.08,66.09,196,63.17Z" />
                <polygon class="cls-29" points="133.74 40.14 133.74 42.36 192.04 75.81 192.04 73.59 133.74 40.14" />
                <polygon class="cls-29" points="157.36 71.97 133.74 58.56 133.74 60.77 157.36 74.18 157.36 71.97" />
                <polygon class="cls-29" points="170.39 70.28 133.74 49.35 133.74 51.57 170.39 72.5 170.39 70.28" />
                <polygon class="cls-29" points="148.66 62.34 133.74 53.96 133.74 56.17 148.66 64.55 148.66 62.34" />
                <polygon class="cls-29" points="150.84 63.6 150.84 65.81 180.23 82.8 180.23 80.58 150.84 63.6" />
                <polygon class="cls-29" points="159.54 73.23 159.54 75.44 176.47 85.21 176.47 83 159.54 73.23" />
                <polygon class="cls-29" points="172.57 73.76 192.04 85.01 192.04 82.8 172.57 71.54 172.57 73.76" />
                <polygon class="cls-29" points="182.41 84.06 192.04 89.62 192.04 87.4 182.41 81.84 182.41 84.06" />
                <polygon class="cls-29" points="133.74 46.96 192.04 80.41 192.04 78.19 133.74 44.75 133.74 46.96" />
                <polygon class="cls-29" points="178.65 86.47 192.04 94.22 192.04 92.01 178.65 84.26 178.65 86.47" />
                <polygon class="cls-29" points="133.74 65.38 192.04 98.83 192.04 96.61 133.74 63.16 133.74 65.38" />
                <path class="cls-29" d="M123.22,50.47a18.35,18.35,0,0,1-3.78-4.53c-.63-1-.61-2.19,0-2.54a4.82,4.82,0,0,0,1.93-2.16c.67.19,1.49-.05,1.49-1a3.58,3.58,0,0,0-1-2.45c-.16-4-1.52-8-6.08-10.69s-5.93-.12-6.09,3.66c-.54-.12-1,.42-1,1.35a4.4,4.4,0,0,0,1.48,2.68,21.61,21.61,0,0,0,1.93,4.38c.61,1.06.63,2.22,0,2.55a5,5,0,0,1-3.79.16c-1.91-.58-3.34.57-3.34,2.94V49a2.77,2.77,0,0,0,1.25,2.16l19,11c.69.4,1.25.08,1.25-.72V57.26A9.71,9.71,0,0,0,123.22,50.47Z" />
                <path class="cls-35" d="M206.71,67.57c1.74,4.24,1.2,8.48-1.21,9.47s-5.77-1.65-7.51-5.89-1.2-8.47,1.21-9.46S205,63.33,206.71,67.57Z" />
                <path class="cls-36" d="M121.75,71.88l-96.68-56a10,10,0,0,0-10.14,0L6.62,20.86A13.52,13.52,0,0,0,0,32.49v18.8A20.89,20.89,0,0,0,10.44,69.38l91.72,53c2.14,1.24,23.09,25.77,25.23,24.51l9.44-5.53A10,10,0,0,0,141.39,130l-15-52.18A10,10,0,0,0,121.75,71.88Z" />
                <path class="cls-37" d="M130.27,145.26l-15.53-35.19V90.59c0-5.8-4.1-12.88-9.16-15.8l-92-53.21c-2.53-1.46-4.82-1.6-6.48-.66C7,21,2.54,23.49,2.41,23.59c-1.41,1,2,.57,2,3.22v24c0,5.81,4.1,12.88,9.16,15.8l89.13,51.57,23.15,29.62Z" />
                <path class="cls-38" d="M125.88,147.79l-15.52-35.2V93.11c0-5.8-4.11-12.88-9.17-15.8L9.22,24.1C4.16,21.18.05,23.52.05,29.32v24c0,5.81,4.11,12.88,9.17,15.8l89.12,51.57Z" />
                <path class="cls-39" d="M8.75,24.72l92,53.21c5.06,2.93,9.16,10,9.16,15.81v19.47l13.24,30,4.15,4.09-15.52-35.2V92.65c0-5.81-4.1-12.89-9.16-15.81l-92-53.21c-3-1.74-5.71-1.6-7.38,0A7.19,7.19,0,0,1,8.75,24.72Z" />
                <polygon class="cls-29" points="37.16 50.57 37.16 52.79 97.92 87.58 97.92 85.36 37.16 50.57" />
                <polygon class="cls-29" points="62.57 83.36 37.16 68.98 37.16 71.2 62.57 85.58 62.57 83.36" />
                <polygon class="cls-29" points="75.6 81.68 37.16 59.78 37.16 61.99 75.6 83.89 75.6 81.68" />
                <polygon class="cls-29" points="53.86 73.73 37.16 64.38 37.16 66.6 53.86 75.95 53.86 73.73" />
                <polygon class="cls-29" points="56.05 74.99 56.05 77.21 86.11 94.57 86.11 92.35 56.05 74.99" />
                <polygon class="cls-29" points="64.75 84.62 64.75 86.84 81.67 96.61 81.67 94.39 64.75 84.62" />
                <polygon class="cls-29" points="77.78 85.15 97.92 96.78 97.92 94.57 77.78 82.94 77.78 85.15" />
                <polygon class="cls-29" points="88.3 95.83 97.92 101.39 97.92 99.17 88.3 93.61 88.3 95.83" />
                <polygon class="cls-29" points="37.16 57.39 97.92 92.18 97.92 89.96 37.16 55.17 37.16 57.39" />
                <polygon class="cls-29" points="83.85 97.87 97.92 105.99 97.92 103.77 83.85 95.65 83.85 97.87" />
                <polygon class="cls-29" points="37.16 75.81 97.92 110.59 97.92 108.38 37.16 73.59 37.16 75.81" />
            </g>
        </g>
    </g>
</svg>